<svg xmlns="http://www.w3.org/2000/svg" width="16.547" height="17.944" viewBox="0 0 16.547 17.944">
  <g id="calendar" transform="translate(-362.727 -634.446)">
    <path id="Path_2056" data-name="Path 2056" d="M39.632,1.134H38.571V.755A.756.756,0,0,0,37.816,0H37.7a.756.756,0,0,0-.755.755v.379H29.554V.755A.756.756,0,0,0,28.8,0h-.114a.756.756,0,0,0-.755.755v.379H26.87a1.244,1.244,0,0,0-1.243,1.243V15.7a1.242,1.242,0,0,0,1.241,1.241H39.634A1.242,1.242,0,0,0,40.875,15.7V2.377a1.244,1.244,0,0,0-1.243-1.243ZM37.444.755A.259.259,0,0,1,37.7.5h.114a.259.259,0,0,1,.258.258v.379h-.631Zm-9.017,0A.259.259,0,0,1,28.686.5H28.8a.259.259,0,0,1,.258.258v.379h-.631V.755ZM40.379,15.7a.745.745,0,0,1-.745.745H26.868a.745.745,0,0,1-.745-.745v0a1.236,1.236,0,0,0,.746.25H36.933a1.234,1.234,0,0,0,.879-.364l2.567-2.567Zm-2.82-.565a1.061,1.061,0,0,0,.03-.25V13.231a.567.567,0,0,1,.567-.567h1.657a1.062,1.062,0,0,0,.25-.03Zm2.82-10.457H29.8a.248.248,0,1,0,0,.5H40.379V11.6a.567.567,0,0,1-.567.567H38.155a1.064,1.064,0,0,0-1.063,1.063v1.657a.567.567,0,0,1-.567.567H26.87a.747.747,0,0,1-.746-.746V5.178H28.81a.248.248,0,1,0,0-.5H26.123v-2.3a.747.747,0,0,1,.746-.746h1.061v.73a.756.756,0,0,0,.755.755.248.248,0,0,0,0-.5.259.259,0,0,1-.258-.258v-.73h8.52v.73a.756.756,0,0,0,.755.755.248.248,0,1,0,0-.5.259.259,0,0,1-.258-.258v-.73h2.188a.747.747,0,0,1,.746.746Z" transform="translate(337.6 634.946)" fill="#818181" stroke="#707070" stroke-width="1"/>
  </g>
</svg>
