<svg xmlns="http://www.w3.org/2000/svg" width="28.077" height="26.837" viewBox="0 0 28.077 26.837">
  <g id="linkedin" transform="translate(0)">
    <path id="Path_2" data-name="Path 2" d="M3.4-.668a3.137,3.137,0,1,0-.079,6.257h.039A3.138,3.138,0,1,0,3.4-.668Zm0,0" transform="translate(0 0.668)"/>
    <path id="Path_3" data-name="Path 3" d="M8.109,198.313h6.019v18.108H8.109Zm0,0" transform="translate(-7.754 -189.584)"/>
    <path id="Path_4" data-name="Path 4" d="M232.658,188.625c-3.247,0-5.424,3.051-5.424,3.051V189.05h-6.019v18.108h6.019V197.046a4.125,4.125,0,0,1,.2-1.469,3.3,3.3,0,0,1,3.088-2.2c2.178,0,3.049,1.661,3.049,4.095v9.687h6.018V196.775c0-5.562-2.969-8.15-6.929-8.15Zm0,0" transform="translate(-211.51 -180.321)"/>
  </g>
</svg>
