<svg xmlns="http://www.w3.org/2000/svg" width="57.703" height="77.588" viewBox="0 0 57.703 77.588">
  <g id="gps" transform="translate(0)">
    <path id="Path_8" data-name="Path 8" d="M117.072,103.977a13.095,13.095,0,1,0,13.095,13.095A13.11,13.11,0,0,0,117.072,103.977Zm0,0" transform="translate(-88.22 -88.22)" fill="#fd695a"/>
    <path id="Path_9" data-name="Path 9" d="M28.97,0h-.121A28.882,28.882,0,0,0,0,28.851c0,8.722,4.458,15.524,9.425,22.3L28.81,77.588S47.132,52.713,48.278,51.151c4.967-6.774,9.425-13.577,9.425-22.3A28.883,28.883,0,0,0,28.97,0Zm-.118,46.491a17.64,17.64,0,1,1,17.64-17.64A17.66,17.66,0,0,1,28.852,46.491Zm0,0" fill="#fd695a"/>
  </g>
</svg>
