<svg xmlns="http://www.w3.org/2000/svg" xmlns:xlink="http://www.w3.org/1999/xlink" width="760" height="719.01" viewBox="0 0 760 719.01">
  <defs>
    <linearGradient id="linear-gradient" x1="-5.957" y1="-5.863" x2="-5.944" y2="-5.863" gradientUnits="objectBoundingBox">
      <stop offset="0" stop-color="#2a276a"/>
      <stop offset="0.8" stop-color="#5a2d8f"/>
      <stop offset="1" stop-color="#6c3695"/>
    </linearGradient>
    <linearGradient id="linear-gradient-2" x1="-6.249" y1="-5.88" x2="-6.234" y2="-5.88" xlink:href="#linear-gradient"/>
    <linearGradient id="linear-gradient-3" x1="-13.181" y1="-3.932" x2="-13.155" y2="-3.932" xlink:href="#linear-gradient"/>
    <linearGradient id="linear-gradient-4" x1="-3.132" y1="-0.987" x2="-3.125" y2="-0.987" gradientUnits="objectBoundingBox">
      <stop offset="0" stop-color="#fff"/>
      <stop offset="0.7" stop-color="#0a0d0d"/>
      <stop offset="1" stop-color="#ececec"/>
    </linearGradient>
    <linearGradient id="linear-gradient-5" x1="-4.019" y1="-1.335" x2="-4.01" y2="-1.335" gradientUnits="objectBoundingBox">
      <stop offset="0" stop-color="#d2edf4"/>
      <stop offset="0.7" stop-color="#87d3e0"/>
      <stop offset="1" stop-color="#6dc7b2"/>
    </linearGradient>
    <linearGradient id="linear-gradient-6" x1="-12.988" y1="-4.975" x2="-12.963" y2="-4.975" gradientUnits="objectBoundingBox">
      <stop offset="0" stop-color="#62c6be"/>
      <stop offset="0.3" stop-color="#45c3d3"/>
      <stop offset="0.5" stop-color="#519cd5"/>
      <stop offset="0.7" stop-color="#5f6bb2"/>
      <stop offset="0.8" stop-color="#625da9"/>
      <stop offset="0.9" stop-color="#5f68b0"/>
      <stop offset="1" stop-color="#5594cf"/>
    </linearGradient>
    <linearGradient id="linear-gradient-7" x1="-13.332" y1="-3.425" x2="-13.309" y2="-3.425" xlink:href="#linear-gradient"/>
    <linearGradient id="linear-gradient-8" x1="-17.585" y1="-10.158" x2="-17.548" y2="-10.158" xlink:href="#linear-gradient"/>
    <linearGradient id="linear-gradient-9" x1="-14.063" y1="-7.924" x2="-14.033" y2="-7.924" xlink:href="#linear-gradient"/>
    <linearGradient id="linear-gradient-10" x1="-8.407" y1="-4.423" x2="-8.389" y2="-4.423" xlink:href="#linear-gradient"/>
    <linearGradient id="linear-gradient-11" x1="-247.354" y1="-68.451" x2="-246.931" y2="-68.451" gradientUnits="objectBoundingBox">
      <stop offset="0" stop-color="#201a54"/>
      <stop offset="1" stop-color="#4d2b7e"/>
    </linearGradient>
    <linearGradient id="linear-gradient-12" x1="-248.576" y1="-69.696" x2="-248.153" y2="-69.696" xlink:href="#linear-gradient-11"/>
    <linearGradient id="linear-gradient-13" x1="-249.792" y1="-70.913" x2="-249.369" y2="-70.913" xlink:href="#linear-gradient-11"/>
    <linearGradient id="linear-gradient-14" x1="-251.065" y1="-72.129" x2="-250.643" y2="-72.129" xlink:href="#linear-gradient-11"/>
    <linearGradient id="linear-gradient-15" x1="-252.301" y1="-73.345" x2="-251.878" y2="-73.345" xlink:href="#linear-gradient-11"/>
    <linearGradient id="linear-gradient-16" x1="-253.517" y1="-74.561" x2="-253.094" y2="-74.561" xlink:href="#linear-gradient-11"/>
    <linearGradient id="linear-gradient-17" x1="-254.819" y1="-75.777" x2="-254.396" y2="-75.777" xlink:href="#linear-gradient-11"/>
    <linearGradient id="linear-gradient-18" x1="-255.949" y1="-76.992" x2="-255.526" y2="-76.992" xlink:href="#linear-gradient-11"/>
    <linearGradient id="linear-gradient-19" x1="-257.165" y1="-78.208" x2="-256.742" y2="-78.208" xlink:href="#linear-gradient-11"/>
    <linearGradient id="linear-gradient-20" x1="-18.902" y1="-149.264" x2="-18.859" y2="-149.264" gradientUnits="objectBoundingBox">
      <stop offset="0" stop-color="#7457a4"/>
      <stop offset="0.2" stop-color="#6067af"/>
      <stop offset="0.5" stop-color="#3397d3"/>
      <stop offset="0.8" stop-color="#19bcd3"/>
      <stop offset="1" stop-color="#30c0c9"/>
    </linearGradient>
    <linearGradient id="linear-gradient-21" x1="-15.047" y1="-32.619" x2="-15.013" y2="-32.619" gradientUnits="objectBoundingBox">
      <stop offset="0" stop-color="#25215d"/>
      <stop offset="1" stop-color="#5c2d8d"/>
    </linearGradient>
    <linearGradient id="linear-gradient-22" x1="-7.028" y1="-5.942" x2="-7.012" y2="-5.942" xlink:href="#linear-gradient-20"/>
    <linearGradient id="linear-gradient-23" x1="-7.028" y1="-5.942" x2="-7.012" y2="-5.942" xlink:href="#linear-gradient-21"/>
    <linearGradient id="linear-gradient-24" x1="-9586.008" y1="-465.303" x2="-9567.143" y2="-465.303" xlink:href="#linear-gradient-20"/>
    <linearGradient id="linear-gradient-25" x1="-24859.445" y1="-376.098" x2="-24813.934" y2="-376.098" xlink:href="#linear-gradient-20"/>
    <linearGradient id="linear-gradient-26" x1="-13.336" y1="-4.42" x2="-13.309" y2="-4.42" xlink:href="#linear-gradient-21"/>
    <linearGradient id="linear-gradient-27" x1="-8931.29" y1="-426.285" x2="-8913.738" y2="-426.285" xlink:href="#linear-gradient-20"/>
    <linearGradient id="linear-gradient-28" x1="-8956.751" y1="-394.972" x2="-8939.209" y2="-394.972" xlink:href="#linear-gradient-20"/>
    <linearGradient id="linear-gradient-29" x1="-67.723" y1="-10.149" x2="-67.59" y2="-10.149" xlink:href="#linear-gradient-21"/>
  </defs>
  <g id="Group_616" data-name="Group 616" transform="translate(-200 -1562.99)">
    <rect id="Rectangle_606" data-name="Rectangle 606" width="760" height="508" rx="50" transform="translate(200 1774)" fill="#5594cf"/>
    <path id="Union_1" data-name="Union 1" d="M142.011,225.109H0a11.775,11.775,0,0,1,.429-1.842c2.233-7.276,8.742-12.771,16.006-14.517S27.572,206.464,34,210.328c-6.7-13.311-4.641-30.714,4.964-42,9.623-11.3,26.188-15.788,40.006-10.828A43.831,43.831,0,0,1,102.647,178.7c-.19-8.7,3.4-17.552,10.162-22.89,8.07-6.369,20.035-7.259,29.2-2.752v-2.791a29.438,29.438,0,0,1,3.251.211,34.049,34.049,0,0,1,6.656-30.762c8.778-10.377,23.123-14.863,36.443-13.249.224.027.443.056.665.087a44.793,44.793,0,0,1,11.381-.087c11.746,1.438,23.078,8.313,32.267,16.38C293.543,95.065,295.588,4.013,295.588,4.013L308.467,0,314.5,1.877,320.529,0l12.877,4.013s2.047,91.052,62.915,118.836c9.189-8.067,20.521-14.942,32.265-16.38a44.808,44.808,0,0,1,11.383.087c.22-.031.443-.06.665-.087,13.324-1.614,27.666,2.873,36.443,13.249a34.049,34.049,0,0,1,6.656,30.762,29.542,29.542,0,0,1,3.255-.211v2.789c9.168-4.5,21.129-3.613,29.2,2.755,6.766,5.337,10.358,14.192,10.166,22.89a43.814,43.814,0,0,1,23.68-21.205c13.818-4.96,30.377-.474,40,10.828,9.6,11.289,11.666,28.692,4.962,42,6.431-3.864,10.3-3.312,17.569-1.579s13.771,7.241,16,14.517a12.247,12.247,0,0,1,.433,1.842Z" transform="translate(266 2056.618)" fill="#d9d9d9"/>
    <path id="Path_2266" data-name="Path 2266" d="M751.3,462.089H503.23c1.456-13.035,7.211-25.8,18.7-31.7,13.531-6.971,31.653-3.323,41.433,8.342-5.943-26.84,14.525-56.506,41.707-60.514,27.183-3.991,55.324,18.533,57.363,45.938.874-12.127,13.84-21.856,25.727-19.3,11.87,2.552,19.7,16.751,15.518,28.159,10.894-9.832,29.444-9.489,39.977.737C751.025,440.9,753.663,452.155,751.3,462.089Z" transform="translate(-23.637 1819.638)" fill="#f2f3f5"/>
    <path id="Path_2267" data-name="Path 2267" d="M634.287,462.524H421.143c-1.542-11.014,4.248-22.866,14.131-28.108,10.825-5.738,25.487-2.912,33.434,6.44-4.727-16.032-2.449-34.462,7.862-47.6a38.354,38.354,0,0,1,3.032-3.426c.223-.24.463-.48.7-.719,10.705-10.328,27.046-14.987,41.005-9.9,13.788,5.019,23.363,20.177,21.736,34.479,4.4-11.545,18.464-19.235,30.437-15.279,13.891,4.59,20.708,23.483,12.947,35.9,9.7-8.855,25.609-9.866,36.348-2.312C632.232,438.647,636.788,451.339,634.287,462.524Z" transform="translate(-56.366 1819.203)" fill="#fff"/>
    <g id="Group_554" data-name="Group 554" transform="translate(-62.001 -218.01)">
      <g id="Group_524" data-name="Group 524" transform="translate(441.748 2251.754) rotate(-45)">
        <path id="Path_2232" data-name="Path 2232" d="M179.3,0S103.264,2.08,100.44,3.02,44.494,39.305,0,95.511l123.391-9.193Z" fill-rule="evenodd" fill="url(#linear-gradient)"/>
      </g>
      <g id="Group_525" data-name="Group 525" transform="translate(441.914 2251.92) rotate(-45)">
        <path id="Path_2233" data-name="Path 2233" d="M0,95.276C44.494,39.07,97.616,3.727,100.44,2.785c1.991-.663,40.341-1.892,62.814-2.56-.554.017-1.1.032-1.679.052L142.446,19.409H76.881c-.519.406-1.044.816-1.578,1.237H87.837C57.4,44,28.218,74.314,9.974,94.534ZM11.757,94.4C30.268,73.941,59.513,43.71,89.86,20.645H142.7l.438-.181L163.381.223c2.8-.084,5.359-.158,7.56-.223a996.826,996.826,0,0,0-54.582,86.608L92.333,88.4l.8-.062L107.1,74.381a.62.62,0,0,0,.124-.7.6.6,0,0,0-.527-.364.325.325,0,0,0-.084.01L48.775,78.2l-.386.178L34.025,92.741,11.76,94.4Zm24.155-1.8L49.1,79.409l55.922-4.7L91.248,88.48Z" fill-rule="evenodd" fill="url(#linear-gradient-2)"/>
      </g>
      <g id="Group_526" data-name="Group 526" transform="translate(653.826 2198.417) rotate(-45)">
        <path id="Path_2234" data-name="Path 2234" d="M0,170.941l.868-11.663c20.213-18.286,50.024-47.09,73.058-77.107V96.528c.413-.522.836-1.054,1.236-1.563V27.56L95.051,7.674c-.668,22.471-1.9,60.836-2.562,62.827-.524,1.58-11.836,18.924-31.549,41.694A458.071,458.071,0,0,1,0,170.941ZM1,157.5l1.664-22.352L16.2,121.62l.176-.388L21.241,63.4a.583.583,0,0,0-.354-.613.655.655,0,0,0-.26-.057.613.613,0,0,0-.438.181L7.071,76.028l1.6-21.449A996.7,996.7,0,0,0,95.274,0c-.05,1.751-.106,3.725-.171,5.874l-21,20.994-.181.438v52.84C51.173,110.078,21.442,138.949,1,157.5Zm1.805-24.241L5.161,101.65,6.93,77.92,19.869,64.981,15.162,120.9Z" fill-rule="evenodd" fill="url(#linear-gradient-3)"/>
      </g>
      <g id="Group_527" data-name="Group 527" transform="translate(378.001 2044.991) rotate(-45)">
        <path id="Path_2235" data-name="Path 2235" d="M65.7,373.34l-7.813-7.813-44.147-44.15L0,307.637c2.184-5.154,7.5-15.665,15.232-29.514a996.826,996.826,0,0,1,54.582-86.608c18.563-26.237,39.342-52.472,60.519-73.649C187.724,60.475,296.214,13.243,346.059,2.359A86.6,86.6,0,0,1,363.462,0c3.779,0,6.443.6,7.805,1.84C369.907.6,367.239,0,363.465,0c-16.691,0-55.037,11.688-97.759,30.931l6.618,6.616c-9.91,4.343-19.238,8.686-28.112,13.1l-6.361-6.361q-.579.293-1.157.589l6.358,6.363c-13.308,6.655-25.6,13.476-37.218,20.725l-6.378-6.376c-.361.22-.727.44-1.088.66l6.4,6.4c-26.794,16.847-50.137,35.989-74.727,60.579C85.5,177.764,13.525,299.617,12.8,300.841a.62.62,0,0,0,.218.848l.314.084.534-.3c.72-1.224,72.62-122.94,117.047-167.37C173.8,91.213,212.85,64.907,273.263,38.486l69.146,69.148c23.539-52.259,35.769-97.97,29.138-105.508,3.764,4.281,1.454,20.866-5.557,43.962-16.6,54.705-59.552,145.955-110.516,196.919-21.177,21.175-47.414,41.959-73.651,60.519a996.7,996.7,0,0,1-86.606,54.579C81.368,365.834,70.857,371.156,65.7,373.34ZM168.062,222.817a.616.616,0,0,0-.438.181L49.868,340.754a.618.618,0,0,0,0,.875l.438.181.435-.181,64.687-64.684,8.094,8.092,34.653,34.656c.351-.235.7-.462,1.054-.695l-34.4-34.4,25.582-25.579.181-.438v-7.466l-.181-.438-4.363-4.36L168.5,223.87a.617.617,0,0,0-.438-1.054ZM131.537,283.2a1.193,1.193,0,1,0,.843.351A1.178,1.178,0,0,0,131.537,283.2Zm5.48-5.483a1.195,1.195,0,1,0,.843.351A1.2,1.2,0,0,0,137.017,277.712Zm5.48-5.478a1.192,1.192,0,1,0,.846.349A1.191,1.191,0,0,0,142.5,272.234Zm5.483-5.48a1.191,1.191,0,0,0-.843,2.035,1.2,1.2,0,0,0,1.687,0,1.191,1.191,0,0,0-.843-2.035Zm-14.957-28.535a1.192,1.192,0,1,0,.846.349A1.186,1.186,0,0,0,133.023,238.219Zm5.483-5.483a1.193,1.193,0,0,0,0,2.387,1.193,1.193,0,0,0,0-2.387ZM297.371,166.18l-.438.181-47.105,47.105-.181.435.181.438,16.77,16.768c.272-.309.542-.621.814-.932L251.141,213.9l46.23-46.227,8.809,8.809c.22-.361.438-.727.658-1.088l-9.029-9.034ZM143.987,227.256a1.193,1.193,0,1,0,.843.349A1.187,1.187,0,0,0,143.987,227.256Zm5.48-5.48a1.193,1.193,0,0,0,0,2.387,1.193,1.193,0,1,0,0-2.387Zm82.461-82.461a1.193,1.193,0,0,0,0,2.387,1.193,1.193,0,1,0,0-2.387Zm5.48-5.48a1.192,1.192,0,1,0,.843.349A1.191,1.191,0,0,0,237.408,133.835Zm5.48-5.48a1.192,1.192,0,1,0,.846.349A1.186,1.186,0,0,0,242.889,128.354Zm5.483-5.48a1.192,1.192,0,1,0,.841.349A1.187,1.187,0,0,0,248.372,122.874Zm5.48-5.483a1.179,1.179,0,0,0-.843.351,1.188,1.188,0,1,0,.843-.351Zm5.48-5.48a1.193,1.193,0,1,0,.843.349A1.2,1.2,0,0,0,259.332,111.91Zm5.48-5.48a1.192,1.192,0,1,0,.843.349A1.191,1.191,0,0,0,264.813,106.43Zm5.48-5.48a1.192,1.192,0,1,0,.846.349A1.186,1.186,0,0,0,270.293,100.95Zm5.483-5.483a1.195,1.195,0,1,0,.841.351A1.19,1.19,0,0,0,275.776,95.467Zm5.48-5.48a1.179,1.179,0,0,0-.843.351,1.188,1.188,0,1,0,.843-.351Zm5.48-5.48a1.192,1.192,0,1,0,.843.349A1.2,1.2,0,0,0,286.737,84.506Zm5.48-5.48a1.192,1.192,0,1,0,.843.349A1.191,1.191,0,0,0,292.217,79.026ZM206.564,67.38a1.192,1.192,0,1,0,.843.349A1.2,1.2,0,0,0,206.564,67.38Zm-2.451-2.451a1.192,1.192,0,1,0,.843.349A1.192,1.192,0,0,0,204.113,64.929Zm41.194-18.885a1.192,1.192,0,1,0,.843.349A1.2,1.2,0,0,0,245.307,46.044Zm-2.451-2.451a1.192,1.192,0,1,0,.843.349A1.2,1.2,0,0,0,242.856,43.593ZM123.96,283.727,116.3,276.07l28.881-28.878,4.18,4.18v6.954ZM371.544,2.124a.124.124,0,0,0-.017-.02A.124.124,0,0,1,371.544,2.124Zm-.02-.022a.131.131,0,0,0-.017-.02A.131.131,0,0,1,371.525,2.1Zm-.02-.022c-.005,0-.01-.012-.017-.02A.14.14,0,0,0,371.5,2.08Zm-.02-.022a.11.11,0,0,0-.017-.017A.11.11,0,0,1,371.485,2.058Zm-.02-.02a.059.059,0,0,0-.017-.017A.059.059,0,0,1,371.465,2.038Zm-.02-.022L371.428,2Zm-.02-.02-.02-.02A.159.159,0,0,1,371.426,2Zm-.02-.02a.147.147,0,0,1-.02-.022A.147.147,0,0,0,371.406,1.976Z" fill-rule="evenodd" fill="url(#linear-gradient-4)"/>
      </g>
      <g id="Group_528" data-name="Group 528" transform="translate(413.543 2062.548) rotate(-45)">
        <path id="Path_2236" data-name="Path 2236" d="M37.588,304.264l-.438-.181a.618.618,0,0,1,0-.875L154.907,185.451a.618.618,0,1,1,.875.873l-22.448,22.448,4.363,4.36.181.438v7.466l-.181.438-25.582,25.579,34.4,34.4c-.354.232-.7.46-1.054.695L110.8,247.491,102.71,239.4,38.023,304.083Zm94.873-94.619L103.58,238.523l7.662,7.657,25.4-25.4v-6.954ZM.618,264.227.3,264.142a.62.62,0,0,1-.218-.848c.722-1.224,72.7-123.076,117.24-167.617,24.59-24.59,47.934-43.732,74.727-60.579l-6.4-6.4c.361-.22.727-.44,1.088-.66l6.378,6.376c11.614-7.249,23.91-14.07,37.218-20.725l-6.358-6.363q.579-.3,1.157-.589l6.361,6.361c8.874-4.412,18.2-8.755,28.112-13.1l.94.94C200.133,27.36,161.085,53.666,118.2,96.552,73.772,140.982,1.871,262.7,1.152,263.922Zm118.2-16.191a1.193,1.193,0,1,1,.843-.351A1.178,1.178,0,0,1,118.82,248.035Zm5.48-5.483a1.192,1.192,0,1,1,.843-.349A1.2,1.2,0,0,1,124.3,242.552Zm5.48-5.478a1.195,1.195,0,1,1,.846-.351A1.194,1.194,0,0,1,129.78,237.074Zm5.483-5.485a1.174,1.174,0,0,1-.843-.346,1.2,1.2,0,1,1,.843.346Zm-14.957-28.532a1.192,1.192,0,1,1,.846-.349A1.186,1.186,0,0,1,120.306,203.057Zm5.483-5.48a1.193,1.193,0,1,1,.841-.351A1.18,1.18,0,0,1,125.789,197.576Zm128.092-4.016-16.77-16.768-.181-.438.181-.435,47.105-47.105.438-.181.438.181,9.029,9.034c-.22.361-.438.727-.658,1.088l-8.809-8.809-46.23,46.227,16.271,16.273C254.422,192.939,254.153,193.251,253.881,193.56ZM131.269,192.1a1.193,1.193,0,1,1,.843-.349A1.187,1.187,0,0,1,131.269,192.1Zm5.48-5.48a1.195,1.195,0,1,1,.843-.351A1.188,1.188,0,0,1,136.75,186.616Zm82.461-82.461a1.195,1.195,0,1,1,.843-.351A1.188,1.188,0,0,1,219.21,104.155Zm5.48-5.48a1.195,1.195,0,1,1,.843-.351A1.194,1.194,0,0,1,224.691,98.674Zm5.48-5.483a1.192,1.192,0,1,1,.846-.349A1.186,1.186,0,0,1,230.171,93.192Zm5.483-5.48a1.192,1.192,0,1,1,.841-.349A1.187,1.187,0,0,1,235.654,87.711Zm5.48-5.48a1.192,1.192,0,1,1,.843-.349A1.187,1.187,0,0,1,241.135,82.231Zm5.48-5.48a1.193,1.193,0,1,1,.843-.349A1.2,1.2,0,0,1,246.615,76.75Zm5.48-5.48a1.195,1.195,0,1,1,.843-.351A1.194,1.194,0,0,1,252.1,71.27Zm5.48-5.483a1.192,1.192,0,1,1,.846-.349A1.186,1.186,0,0,1,257.576,65.787Zm5.483-5.48a1.192,1.192,0,1,1,.841-.349A1.187,1.187,0,0,1,263.058,60.307Zm5.48-5.48a1.192,1.192,0,1,1,.843-.349A1.187,1.187,0,0,1,268.539,54.826Zm5.48-5.483a1.192,1.192,0,1,1,.843-.349A1.2,1.2,0,0,1,274.019,49.343Zm5.48-5.48a1.192,1.192,0,1,1,.843-.349A1.191,1.191,0,0,1,279.5,43.863ZM193.846,32.22a1.195,1.195,0,1,1,.843-.351A1.2,1.2,0,0,1,193.846,32.22ZM191.4,29.766a1.192,1.192,0,1,1,.843-.349A1.193,1.193,0,0,1,191.4,29.766ZM232.59,10.884a1.195,1.195,0,1,1,.843-.351A1.2,1.2,0,0,1,232.59,10.884Zm-2.451-2.453a1.192,1.192,0,1,1,.843-.349A1.2,1.2,0,0,1,230.139,8.431Z" fill-rule="evenodd" fill="url(#linear-gradient-5)"/>
      </g>
      <g id="Group_529" data-name="Group 529" transform="translate(570.723 2040.064) rotate(-45)">
        <path id="Path_2237" data-name="Path 2237" d="M86.031,86.029a50.4,50.4,0,1,1,0-71.27A50.395,50.395,0,0,1,86.031,86.029Z" fill-rule="evenodd" fill="url(#linear-gradient-6)"/>
      </g>
      <g id="Group_530" data-name="Group 530" transform="translate(585.072 2040.064) rotate(-45)">
        <path id="Path_2238" data-name="Path 2238" d="M68.708,68.708a40.247,40.247,0,1,1,0-56.919A40.249,40.249,0,0,1,68.708,68.708Z" fill="#fff" fill-rule="evenodd"/>
      </g>
      <g id="Group_531" data-name="Group 531" transform="translate(565.883 1857.109) rotate(-45)">
        <path id="Path_2239" data-name="Path 2239" d="M76.7,107.634,7.558,38.486l-.94-.94L0,30.931C42.723,11.688,81.068,0,97.759,0c3.774,0,6.442.6,7.8,1.84l.119.114a.147.147,0,0,0,.02.022l.04.04s0,0,0,0a.059.059,0,0,1,.017.017s0,0,0,0a.11.11,0,0,1,.017.017l0,0c.008.007.012.015.017.02l.022.025a.124.124,0,0,1,.017.02,0,0,0,0,1,0,0C112.472,9.665,100.242,55.375,76.7,107.634ZM74.035,88.953A1.465,1.465,0,0,0,73,89.38l-2.928,2.931a1.46,1.46,0,1,0,2.065,2.065l2.931-2.928a1.462,1.462,0,0,0-1.034-2.5ZM66.92,81.837a1.455,1.455,0,0,0-1.031.428L62.958,85.2a1.46,1.46,0,1,0,2.065,2.065l2.931-2.928a1.462,1.462,0,0,0-1.034-2.5ZM59.8,74.725a1.453,1.453,0,0,0-1.031.425l-2.931,2.931a1.461,1.461,0,1,0,2.065,2.068l2.931-2.931A1.459,1.459,0,0,0,59.8,74.725ZM52.692,67.61a1.446,1.446,0,0,0-1.034.428l-2.931,2.928a1.461,1.461,0,1,0,2.065,2.068L53.723,70.1a1.46,1.46,0,0,0-1.031-2.493Zm-7.115-7.115a1.457,1.457,0,0,0-1.034.428l-2.931,2.928a1.462,1.462,0,0,0,2.068,2.068l2.928-2.931a1.46,1.46,0,0,0-1.031-2.493ZM38.462,53.38a1.457,1.457,0,0,0-1.034.428L34.5,56.738A1.461,1.461,0,0,0,36.565,58.8L39.5,55.872a1.46,1.46,0,0,0-1.034-2.493Zm-7.115-7.115a1.461,1.461,0,0,0-1.034.428l-2.928,2.931a1.46,1.46,0,1,0,2.065,2.065L32.38,48.76a1.462,1.462,0,0,0-1.034-2.5Zm-7.115-7.115a1.465,1.465,0,0,0-1.034.428L20.27,42.508a1.461,1.461,0,0,0,2.068,2.065l2.928-2.928a1.462,1.462,0,0,0-1.034-2.5Zm-7.113-7.115a1.458,1.458,0,0,0-1.036.43l-2.928,2.928a1.462,1.462,0,0,0,2.068,2.068l2.928-2.931a1.463,1.463,0,0,0-1.031-2.5Z" fill-rule="evenodd" fill="url(#linear-gradient-7)"/>
      </g>
      <g id="Group_532" data-name="Group 532" transform="translate(594.972 2261.885) rotate(-45)">
        <path id="Path_2240" data-name="Path 2240" d="M6.917,0C3.564,6.309,1.2,11.131,0,13.951L52.546,66.5c2.819-1.2,7.642-3.566,13.951-6.917Z" fill-rule="evenodd" fill="url(#linear-gradient-8)"/>
      </g>
      <g id="Group_533" data-name="Group 533" transform="translate(583.199 2250.189) rotate(-45)">
        <path id="Path_2241" data-name="Path 2241" d="M8.649,0C4.457,7.889,1.494,13.919,0,17.443l65.7,65.7c3.527-1.494,9.559-4.457,17.445-8.648Z" fill-rule="evenodd" fill="url(#linear-gradient-9)"/>
      </g>
      <g id="Group_534" data-name="Group 534" transform="translate(544.269 2221.762) rotate(-45)">
        <path id="Path_2242" data-name="Path 2242" d="M89.888,57.927C42.975,104.839,2.792,140.719.139,138.063S33.36,95.226,80.275,48.311,134.888-1.994,137.542.66,136.8,11.012,89.888,57.927Z" fill-rule="evenodd" fill="url(#linear-gradient-10)"/>
      </g>
      <g id="Group_535" data-name="Group 535" transform="translate(597.533 1870.762) rotate(-45)">
        <path id="Path_2243" data-name="Path 2243" d="M1.462,5.854a1.462,1.462,0,0,1-1.034-2.5L3.357.43A1.461,1.461,0,0,1,5.424,2.5L2.5,5.426A1.465,1.465,0,0,1,1.462,5.854Z" fill-rule="evenodd" fill="url(#linear-gradient-11)"/>
      </g>
      <g id="Group_536" data-name="Group 536" transform="translate(607.596 1870.762) rotate(-45)">
        <path id="Path_2244" data-name="Path 2244" d="M1.462,5.851A1.46,1.46,0,0,1,.428,3.358L3.357.428A1.462,1.462,0,0,1,5.424,2.5L2.5,5.424A1.455,1.455,0,0,1,1.462,5.851Z" fill-rule="evenodd" fill="url(#linear-gradient-12)"/>
      </g>
      <g id="Group_537" data-name="Group 537" transform="translate(617.658 1870.762) rotate(-45)">
        <path id="Path_2245" data-name="Path 2245" d="M1.462,5.851A1.46,1.46,0,0,1,.428,3.358L3.357.428A1.462,1.462,0,0,1,5.424,2.5L2.493,5.423A1.445,1.445,0,0,1,1.462,5.851Z" fill-rule="evenodd" fill="url(#linear-gradient-13)"/>
      </g>
      <g id="Group_538" data-name="Group 538" transform="translate(627.72 1870.762) rotate(-45)">
        <path id="Path_2246" data-name="Path 2246" d="M1.46,5.851A1.46,1.46,0,0,1,.427,3.358L3.357.428A1.461,1.461,0,0,1,5.425,2.493L2.494,5.423A1.46,1.46,0,0,1,1.46,5.851Z" fill-rule="evenodd" fill="url(#linear-gradient-14)"/>
      </g>
      <g id="Group_539" data-name="Group 539" transform="translate(637.782 1870.762) rotate(-45)">
        <path id="Path_2247" data-name="Path 2247" d="M1.46,5.851a1.462,1.462,0,0,1-1.034-2.5L3.357.428A1.46,1.46,0,0,1,5.422,2.493L2.494,5.423A1.461,1.461,0,0,1,1.46,5.851Z" fill-rule="evenodd" fill="url(#linear-gradient-15)"/>
      </g>
      <g id="Group_540" data-name="Group 540" transform="translate(647.844 1870.762) rotate(-45)">
        <path id="Path_2248" data-name="Path 2248" d="M1.46,5.851a1.462,1.462,0,0,1-1.034-2.5L3.357.428A1.46,1.46,0,1,1,5.422,2.493L2.492,5.423A1.455,1.455,0,0,1,1.46,5.851Z" fill-rule="evenodd" fill="url(#linear-gradient-16)"/>
      </g>
      <g id="Group_541" data-name="Group 541" transform="translate(657.907 1870.762) rotate(-45)">
        <path id="Path_2249" data-name="Path 2249" d="M1.46,5.851a1.462,1.462,0,0,1-1.034-2.5L3.357.425A1.461,1.461,0,0,1,5.422,2.493L2.492,5.424A1.455,1.455,0,0,1,1.46,5.851Z" fill-rule="evenodd" fill="url(#linear-gradient-17)"/>
      </g>
      <g id="Group_542" data-name="Group 542" transform="translate(667.966 1870.762) rotate(-45)">
        <path id="Path_2250" data-name="Path 2250" d="M1.462,5.851A1.46,1.46,0,0,1,.429,3.358L3.359.428A1.461,1.461,0,0,1,5.424,2.5L2.494,5.424A1.445,1.445,0,0,1,1.462,5.851Z" fill-rule="evenodd" fill="url(#linear-gradient-18)"/>
      </g>
      <g id="Group_543" data-name="Group 543" transform="translate(678.028 1870.762) rotate(-45)">
        <path id="Path_2251" data-name="Path 2251" d="M1.462,5.851A1.46,1.46,0,0,1,.428,3.358L3.357.428A1.462,1.462,0,0,1,5.424,2.5L2.494,5.424A1.445,1.445,0,0,1,1.462,5.851Z" fill-rule="evenodd" fill="url(#linear-gradient-19)"/>
      </g>
      <g id="Group_544" data-name="Group 544" transform="translate(528.479 2290.37) rotate(-45)">
        <path id="Path_2252" data-name="Path 2252" d="M0,4.345l0,0L1.89,4.2v0ZM57.225.082,58.311,0Z" fill-rule="evenodd" fill="url(#linear-gradient-20)"/>
      </g>
      <g id="Group_545" data-name="Group 545" transform="translate(517.819 2279.706) rotate(-45)">
        <path id="Path_2253" data-name="Path 2253" d="M0,19.421,14.364,5.055l.386-.178L72.583.01A.325.325,0,0,1,72.667,0a.6.6,0,0,1,.527.364.62.62,0,0,1-.124.7L59.112,15.017l-.8.062-1.086.082L71,1.385l-55.922,4.7L1.887,19.28Z" fill-rule="evenodd" fill="url(#linear-gradient-21)"/>
      </g>
      <g id="Group_546" data-name="Group 546" transform="translate(449.124 2245.025) rotate(-45)">
        <path id="Path_2254" data-name="Path 2254" d="M0,94.312l1.786-.133,0,0ZM153.281,0l.126,0Z" fill-rule="evenodd" fill="url(#linear-gradient-22)"/>
      </g>
      <g id="Group_547" data-name="Group 547" transform="translate(449.124 2245.025) rotate(-45)">
        <path id="Path_2255" data-name="Path 2255" d="M0,94.312c18.244-20.22,47.427-50.533,77.863-73.889H65.33c.534-.42,1.058-.831,1.578-1.237h65.565L151.6.054c.579-.02,1.125-.035,1.679-.052l.126,0L133.164,20.242l-.438.181H79.886c-30.347,23.064-59.592,53.3-78.1,73.758L0,94.312Z" fill-rule="evenodd" fill="url(#linear-gradient-23)"/>
      </g>
      <g id="Group_548" data-name="Group 548" transform="translate(765.807 2309.171) rotate(-45)">
        <path id="Path_2256" data-name="Path 2256" d="M0,1.783.131,0,0,1.781Z" fill-rule="evenodd" fill="url(#linear-gradient-24)"/>
      </g>
      <g id="Group_549" data-name="Group 549" transform="translate(725.189 2135.357) rotate(-45)">
        <path id="Path_2257" data-name="Path 2257" d="M0,1.8C.017,1.192.034.589.052,0l0,0C.034.586.017,1.192,0,1.8Z" fill-rule="evenodd" fill="url(#linear-gradient-25)"/>
      </g>
      <g id="Group_550" data-name="Group 550" transform="translate(658.593 2201.957) rotate(-45)">
        <path id="Path_2258" data-name="Path 2258" d="M0,153.4l.134-1.781c20.44-18.548,50.172-47.419,72.924-77.351V21.432l.181-.438L94.235,0c-.017.586-.035,1.19-.052,1.8L74.294,21.687v67.4c-.4.509-.823,1.041-1.236,1.563V76.3C50.023,106.314,20.213,135.118,0,153.4Z" fill-rule="evenodd" fill="url(#linear-gradient-26)"/>
      </g>
      <g id="Group_551" data-name="Group 551" transform="translate(749.937 2290.758) rotate(-45)">
        <path id="Path_2259" data-name="Path 2259" d="M0,1.889.141,0V0Z" fill-rule="evenodd" fill="url(#linear-gradient-27)"/>
      </g>
      <g id="Group_552" data-name="Group 552" transform="translate(712.486 2247.277) rotate(-45)">
        <path id="Path_2260" data-name="Path 2260" d="M0,1.894.138,0l0,0L0,1.892Z" fill-rule="evenodd" fill="url(#linear-gradient-28)"/>
      </g>
      <g id="Group_553" data-name="Group 553" transform="translate(700.068 2240.889) rotate(-45)">
        <path id="Path_2261" data-name="Path 2261" d="M0,72.415l.141-1.889L12.5,58.172,17.2,2.25,4.264,15.19,4.4,13.3,17.524.18A.613.613,0,0,1,17.962,0a.655.655,0,0,1,.26.057.583.583,0,0,1,.354.613L13.706,58.5l-.176.388Z" fill-rule="evenodd" fill="url(#linear-gradient-29)"/>
      </g>
    </g>
    <g id="_2766113" data-name="2766113" transform="matrix(0.978, 0.208, -0.208, 0.978, 21.563, 996.77)">
      <path id="Path_2262" data-name="Path 2262" d="M2769.8,4215.365s5.681-20.165-14.179-31.169a30.183,30.183,0,0,0-6.708,1.426c4.107,5.224,8.51,14.849-1.948,31.116l-1.5-8.624-4.973,15.311s-10.771-12.937-9.014-26.362l-4.061,6.493a30.53,30.53,0,0,1,2.369-14.452,73.824,73.824,0,0,1-7.886,1.676s-9.088,10.638-.618,29.662c0,0,1.819-8.609,5.085-8.646,0,0-6.451,21.873,27.123,33.751,0,0,19.8-21.887,8.418-37.952C2761.9,4207.594,2768.674,4209.793,2769.8,4215.365Z" transform="translate(-1972.831 -3271.923)" fill="#ed7530"/>
      <path id="Path_2263" data-name="Path 2263" d="M2819.977,4204.108h0c-4.477.755-12,2.064-20.289,4.313a24.362,24.362,0,0,0-1.746,13.979l4.062-6.493c-1.756,13.425,9.014,26.363,9.014,26.363l4.973-15.311,1.5,8.624C2827.68,4219.737,2823.971,4209.458,2819.977,4204.108Z" transform="translate(-2043.362 -3290.768)" fill="#f3a828"/>
    </g>
  </g>
</svg>
