<svg xmlns="http://www.w3.org/2000/svg" width="134.937" height="90" viewBox="0 0 134.937 90">
  <g id="Group_134" data-name="Group 134" transform="translate(-1070 -1356)">
    <g id="laptop" transform="translate(1070 1356)">
      <g id="Group_106" data-name="Group 106" transform="translate(13.085 7.638)">
        <g id="Group_105" data-name="Group 105">
          <path id="Path_2029" data-name="Path 2029" d="M143.8,78.914h-5.341a1.1,1.1,0,0,0,0,2.192h4.266v64.226H120.518a.867.867,0,0,0-.293-.531l-8.956-9.133a1.028,1.028,0,0,0-1.5,0,1.077,1.077,0,0,0,0,1.527l8.012,8.17H36V81.139H66.65a1.162,1.162,0,0,0,.326.664L80.2,95.286a1.011,1.011,0,0,0,1.5,0,1.077,1.077,0,0,0,0-1.528L69.321,81.139H125.7a1.1,1.1,0,0,0,0-2.192H34.962a1.019,1.019,0,0,0-1.075,1.1v66.352a1.019,1.019,0,0,0,1.075,1.1H143.836a1.019,1.019,0,0,0,1.075-1.1V80.01A1.061,1.061,0,0,0,143.8,78.914Z" transform="translate(-33.887 -78.914)" fill="#353e60"/>
        </g>
      </g>
      <g id="Group_108" data-name="Group 108">
        <g id="Group_107" data-name="Group 107">
          <path id="Path_2030" data-name="Path 2030" d="M133.889,137.335h-4.281V67.5c0-4.935-5.033-8.366-9.64-8.366H17.157c-4.608,0-9.641,3.431-9.641,8.366v69.837H1.078A1.012,1.012,0,0,0,0,138.413v.425a9.329,9.329,0,0,0,1.111,4.216.892.892,0,0,0,.229.425,11.477,11.477,0,0,0,9.346,5.654H126.373c5.359,0,8.562-5.261,8.562-10.294v-.425A.987.987,0,0,0,133.889,137.335ZM9.641,67.5c0-3.529,3.954-6.209,7.484-6.209H119.935c3.53,0,7.484,2.68,7.484,6.209v69.837H9.641Zm122.811,74.118h-1.8a1.078,1.078,0,1,0,0,2.157h.915a5.854,5.854,0,0,1-5.2,3.2H10.686a9.167,9.167,0,0,1-6.47-3.2H122.092a1.078,1.078,0,1,0,0-2.157H2.778a7.161,7.161,0,0,1-.654-2.157H132.811A9.917,9.917,0,0,1,132.451,141.616Z" transform="translate(0 -59.132)" fill="#353e60"/>
        </g>
      </g>
      <g id="Group_110" data-name="Group 110" transform="translate(67.433 4.027)">
        <g id="Group_109" data-name="Group 109">
          <path id="Path_2031" data-name="Path 2031" d="M179.379,69.884a1.063,1.063,0,0,0-1.527,0,1.044,1.044,0,0,0,0,1.527,1.009,1.009,0,0,0,.764.332,1.08,1.08,0,0,0,.764-1.86Z" transform="translate(-177.519 -69.561)" fill="#353e60"/>
        </g>
      </g>
    </g>
    <g id="illustration" transform="translate(1116.295 1381.192)">
      <g id="Group_116" data-name="Group 116" transform="translate(19.357 17.946)">
        <g id="Group_115" data-name="Group 115">
          <path id="Path_2034" data-name="Path 2034" d="M234.1,230h-3.361a.318.318,0,0,0-.336.336V233.7a.318.318,0,0,0,.336.336H234.1a.361.361,0,0,0,.336-.336v-3.361A.318.318,0,0,0,234.1,230Zm-.336,3.361h-2.689v-2.688h2.689Z" transform="translate(-230.4 -230)" fill="#353e60" stroke="#353e60" stroke-width="1"/>
        </g>
      </g>
      <g id="Group_118" data-name="Group 118" transform="translate(38.681 0)">
        <g id="Group_117" data-name="Group 117">
          <path id="Path_2035" data-name="Path 2035" d="M464.063,16.4h-3.327a.317.317,0,0,0-.336.336v3.327a.317.317,0,0,0,.336.336h3.327a.361.361,0,0,0,.336-.336V16.736A.318.318,0,0,0,464.063,16.4Zm-.336,3.327h-2.655V17.072h2.655Z" transform="translate(-460.4 -16.4)" fill="#353e60" stroke="#353e60" stroke-width="1"/>
        </g>
      </g>
      <g id="Group_120" data-name="Group 120" transform="translate(22.752 3.423)">
        <g id="Group_119" data-name="Group 119">
          <path id="Path_2036" data-name="Path 2036" d="M288.578,57.144a.3.3,0,0,0-.37.3,17.065,17.065,0,0,1-17.072,15.963.336.336,0,0,0,0,.672A17.751,17.751,0,0,0,288.88,57.514.3.3,0,0,0,288.578,57.144Z" transform="translate(-270.8 -57.139)" fill="#353e60" stroke="#353e60" stroke-width="1"/>
        </g>
      </g>
      <g id="Group_122" data-name="Group 122" transform="translate(0.067 35.925)">
        <g id="Group_121" data-name="Group 121">
          <path id="Path_2037" data-name="Path 2037" d="M4.463,444H1.136a.318.318,0,0,0-.336.336v3.327a.317.317,0,0,0,.336.336H4.463a.317.317,0,0,0,.336-.336v-3.327A.318.318,0,0,0,4.463,444Zm-.336,3.327H1.472v-2.655H4.127Z" transform="translate(-0.8 -444)" fill="#353e60" stroke="#353e60" stroke-width="1"/>
        </g>
      </g>
      <g id="Group_124" data-name="Group 124" transform="translate(1.68 19.693)">
        <g id="Group_123" data-name="Group 123">
          <path id="Path_2038" data-name="Path 2038" d="M37.879,250.8A18.042,18.042,0,0,0,20,267.3a.345.345,0,0,0,.336.37.36.36,0,0,0,.336-.336,17.352,17.352,0,0,1,17.206-15.862.336.336,0,1,0,0-.672Z" transform="translate(-20 -250.8)" fill="#353e60" stroke="#353e60" stroke-width="1"/>
        </g>
      </g>
      <g id="Group_126" data-name="Group 126" transform="translate(0 18.047)">
        <g id="Group_125" data-name="Group 125">
          <path id="Path_2039" data-name="Path 2039" d="M3.629,232.847a.361.361,0,0,0-.336.336,1.311,1.311,0,1,1-1.311-1.311,1.477,1.477,0,0,1,.739.235.34.34,0,1,0,.37-.571,2.147,2.147,0,0,0-1.109-.336,1.983,1.983,0,1,0,1.983,2.016v-.067A.332.332,0,0,0,3.629,232.847Z" transform="translate(0 -231.2)" fill="#353e60" stroke="#353e60" stroke-width="1"/>
        </g>
      </g>
      <g id="Group_128" data-name="Group 128" transform="translate(3.394 19.626)">
        <g id="Group_127" data-name="Group 127">
          <path id="Path_2040" data-name="Path 2040" d="M56.7,250H40.736a.336.336,0,1,0,0,.672H56.7a.336.336,0,1,0,0-.672Z" transform="translate(-40.4 -250)" fill="#353e60" stroke="#353e60" stroke-width="1"/>
        </g>
      </g>
      <g id="Group_130" data-name="Group 130" transform="translate(38.681 18.047)">
        <g id="Group_129" data-name="Group 129">
          <path id="Path_2041" data-name="Path 2041" d="M462.215,231.2a1.649,1.649,0,0,0-1.042.3.34.34,0,1,0,.37.571,1.212,1.212,0,0,1,.672-.2,1.32,1.32,0,0,1,1.344,1.311,1.284,1.284,0,0,1-1.277,1.311,1.221,1.221,0,0,1-1.21-1.277v-.1a.336.336,0,1,0-.672,0v.1a1.894,1.894,0,0,0,1.882,1.949,1.937,1.937,0,0,0,1.949-1.983A2.016,2.016,0,0,0,462.215,231.2Z" transform="translate(-460.4 -231.2)" fill="#353e60" stroke="#353e60" stroke-width="1"/>
        </g>
      </g>
      <g id="Group_132" data-name="Group 132" transform="translate(22.718 19.626)">
        <g id="Group_131" data-name="Group 131">
          <path id="Path_2042" data-name="Path 2042" d="M286.7,250H270.736a.336.336,0,0,0,0,.672H286.7a.337.337,0,0,0,.336-.336A.318.318,0,0,0,286.7,250Z" transform="translate(-270.4 -250)" fill="#353e60" stroke="#353e60" stroke-width="1"/>
        </g>
      </g>
    </g>
  </g>
</svg>
