<svg xmlns="http://www.w3.org/2000/svg" width="70.261" height="107.885" viewBox="0 0 70.261 107.885">
  <g id="investment" transform="translate(-45.869 -10.121)">
    <path id="Path_2389" data-name="Path 2389" d="M145.765,145.9a9.65,9.65,0,1,1-19.3,0V143.23a5.528,5.528,0,1,0-11.056,0v8.262a3.061,3.061,0,1,1-6.121,0V120.823h4.445a4.314,4.314,0,0,0,4.309-4.309v-9.725a12.7,12.7,0,0,1,4.085-9.239,20.769,20.769,0,1,0-28.2.1A12.435,12.435,0,0,1,97.9,106.8v9.711a4.314,4.314,0,0,0,4.309,4.309h4.445v30.669a5.693,5.693,0,1,0,11.386,0V143.23a2.9,2.9,0,0,1,5.79,0V145.9a12.282,12.282,0,0,0,24.565,0ZM95.708,95.713a18.136,18.136,0,0,1,12.264-31.5h.171a18.136,18.136,0,0,1,12.191,31.406,15.406,15.406,0,0,0-4.86,9.864H110V97.178a1.311,1.311,0,0,0-.083-.458,4.607,4.607,0,1,0-2.466,0,1.311,1.311,0,0,0-.084.458v8.308h-6.893a15.035,15.035,0,0,0-4.766-9.774Zm12.975-1.452a1.974,1.974,0,1,1,1.974-1.974,1.974,1.974,0,0,1-1.974,1.974Zm-8.146,22.283h9.9a1.316,1.316,0,1,0,0-2.633h-9.9v-1.647h2.123a1.316,1.316,0,0,0,0-2.633h-2.123v-1.512H115.41v1.512h-9.653a1.316,1.316,0,1,0,0,2.633h9.653v1.647h-1.873a1.316,1.316,0,0,0,0,2.633h1.871a1.677,1.677,0,0,1-1.675,1.647H102.212A1.677,1.677,0,0,1,100.537,116.544Z" transform="translate(-32.267 -40.173)" fill="#353e60"/>
    <path id="Path_2390" data-name="Path 2390" d="M179.108,11.437v5.985a1.316,1.316,0,1,0,2.633,0V11.437a1.316,1.316,0,1,0-2.633,0Z" transform="translate(-104.008)" fill="#353e60"/>
    <path id="Path_2391" data-name="Path 2391" d="M279.9,142.754h5.985a1.316,1.316,0,1,0,0-2.633H279.9a1.316,1.316,0,0,0,0,2.633Z" transform="translate(-181.663 -101.48)" fill="#353e60"/>
    <path id="Path_2392" data-name="Path 2392" d="M53.171,140.121H47.185a1.316,1.316,0,0,0,0,2.633h5.985a1.316,1.316,0,0,0,0-2.633Z" transform="translate(0 -101.48)" fill="#353e60"/>
    <path id="Path_2393" data-name="Path 2393" d="M257.418,44.589a1.316,1.316,0,0,0-1.861,0l-4.671,4.671a1.316,1.316,0,1,0,1.861,1.861l4.67-4.671A1.316,1.316,0,0,0,257.418,44.589Z" transform="translate(-159.738 -26.605)" fill="#353e60"/>
    <path id="Path_2394" data-name="Path 2394" d="M80.337,44.589a1.316,1.316,0,0,0,0,1.861l4.671,4.671a1.316,1.316,0,1,0,1.861-1.861L82.2,44.589A1.316,1.316,0,0,0,80.337,44.589Z" transform="translate(-26.605 -26.605)" fill="#353e60"/>
  </g>
</svg>
