<svg xmlns="http://www.w3.org/2000/svg" width="111.756" height="91" viewBox="0 0 111.756 91">
  <g id="Group_138" data-name="Group 138" transform="translate(-312.5 -1038.554)">
    <g id="frame" transform="translate(313 1039.054)">
      <g id="Group_46" data-name="Group 46" transform="translate(15.543 17.965)">
        <g id="Group_45" data-name="Group 45" transform="translate(0 0)">
          <path id="Path_1999" data-name="Path 1999" d="M154.786,176.527v-52.5a.813.813,0,0,0-.891-.827h-77.8a.813.813,0,0,0-.891.827v52.417a.813.813,0,0,0,.891.827h77.892C154.429,177.271,154.875,176.94,154.786,176.527ZM153,175.617H76.982V124.854H153v50.764Z" transform="translate(-75.2 -123.2)" fill="#fff" stroke="#fff" stroke-width="1"/>
        </g>
      </g>
      <g id="Group_48" data-name="Group 48" transform="translate(26.694 26.15)">
        <g id="Group_47" data-name="Group 47" transform="translate(0 0)">
          <path id="Path_2000" data-name="Path 2000" d="M171.834,162.8h-3.307a.827.827,0,0,0,0,1.654h2.48V198.93H116.854V164.454h39.354a.827.827,0,1,0,0-1.654H116.027a.781.781,0,0,0-.827.827v36.047a.781.781,0,0,0,.827.827h55.724a.9.9,0,0,0,.909-.744v-36.13A.781.781,0,0,0,171.834,162.8Z" transform="translate(-115.2 -162.8)" fill="#fff" stroke="#fff" stroke-width="1"/>
        </g>
      </g>
      <g id="Group_50" data-name="Group 50" transform="translate(93.559 0)">
        <g id="Group_49" data-name="Group 49">
          <path id="Path_2001" data-name="Path 2001" d="M425.627,47.6a.781.781,0,0,0-.827.827V59.919a.781.781,0,0,0,.827.827.889.889,0,0,0,.827-.827V48.427A.781.781,0,0,0,425.627,47.6Z" transform="translate(-424.8 -47.6)" fill="#fff" stroke="#fff" stroke-width="1"/>
        </g>
      </g>
      <g id="Group_52" data-name="Group 52" transform="translate(15.543 0)">
        <g id="Group_51" data-name="Group 51">
          <path id="Path_2002" data-name="Path 2002" d="M76.027,47.6a.781.781,0,0,0-.827.827V59.919a.781.781,0,0,0,.827.827.828.828,0,0,0,.827-.827V48.427A.781.781,0,0,0,76.027,47.6Z" transform="translate(-75.2 -47.6)" fill="#fff" stroke="#fff" stroke-width="1"/>
        </g>
      </g>
      <g id="Group_54" data-name="Group 54" transform="translate(93.559 76.854)">
        <g id="Group_53" data-name="Group 53">
          <path id="Path_2003" data-name="Path 2003" d="M425.627,396.8a.781.781,0,0,0-.827.827v11.492a.781.781,0,0,0,.827.827.889.889,0,0,0,.827-.827V397.627A.781.781,0,0,0,425.627,396.8Z" transform="translate(-424.8 -396.8)" fill="#fff" stroke="#fff" stroke-width="1"/>
        </g>
      </g>
      <g id="Group_56" data-name="Group 56" transform="translate(97.61 71.847)">
        <g id="Group_55" data-name="Group 55" transform="translate(0 0)">
          <path id="Path_2004" data-name="Path 2004" d="M456.719,376.8H445.227a.827.827,0,0,0,0,1.654h11.492a.827.827,0,0,0,0-1.654Z" transform="translate(-444.4 -376.8)" fill="#fff" stroke="#fff" stroke-width="1"/>
        </g>
      </g>
      <g id="Group_58" data-name="Group 58" transform="translate(0 71.847)">
        <g id="Group_57" data-name="Group 57" transform="translate(0 0)">
          <path id="Path_2005" data-name="Path 2005" d="M12.319,376.8H.827a.827.827,0,0,0,0,1.654H12.319a.829.829,0,0,0,.827-.827A.781.781,0,0,0,12.319,376.8Z" transform="translate(0 -376.8)" fill="#fff" stroke="#fff" stroke-width="1"/>
        </g>
      </g>
      <g id="Group_60" data-name="Group 60" transform="translate(97.61 16.499)">
        <g id="Group_59" data-name="Group 59" transform="translate(0 0)">
          <path id="Path_2006" data-name="Path 2006" d="M456.719,123.2H445.227a.827.827,0,0,0,0,1.654h11.492a.827.827,0,1,0,0-1.654Z" transform="translate(-444.4 -123.2)" fill="#fff" stroke="#fff" stroke-width="1"/>
        </g>
      </g>
      <g id="Group_62" data-name="Group 62" transform="translate(0 16.499)">
        <g id="Group_61" data-name="Group 61" transform="translate(0 0)">
          <path id="Path_2007" data-name="Path 2007" d="M12.319,123.2H.827a.827.827,0,0,0,0,1.654H12.319a.829.829,0,0,0,.827-.827A.781.781,0,0,0,12.319,123.2Z" transform="translate(0 -123.2)" fill="#fff" stroke="#fff" stroke-width="1"/>
        </g>
      </g>
      <g id="Group_64" data-name="Group 64" transform="translate(15.543 76.854)">
        <g id="Group_63" data-name="Group 63">
          <path id="Path_2008" data-name="Path 2008" d="M76.027,396.8a.781.781,0,0,0-.827.827v11.492a.781.781,0,0,0,.827.827.828.828,0,0,0,.827-.827V397.627A.781.781,0,0,0,76.027,396.8Z" transform="translate(-75.2 -396.8)" fill="#fff" stroke="#fff" stroke-width="1"/>
        </g>
      </g>
    </g>
  </g>
</svg>
