<svg xmlns="http://www.w3.org/2000/svg" width="112" height="89.967" viewBox="0 0 112 89.967">
  <g id="Group_139" data-name="Group 139" transform="translate(-715 -1028.802)">
    <g id="Group_135" data-name="Group 135" transform="translate(715 1028.802)">
      <g id="pantone" transform="translate(0 0)">
        <g id="Group_66" data-name="Group 66" transform="translate(0 4.196)">
          <g id="Group_65" data-name="Group 65" transform="translate(0 0)">
            <path id="Path_2009" data-name="Path 2009" d="M44.632,91.559a.847.847,0,0,0-.9.9v52.878c0,4.3-3.764,6.543-7.439,6.543H8.783c-4.212,0-6.991-2.6-6.991-6.543V77.488c0-4.212,3.226-7.8,6.991-7.8H36.3a7.635,7.635,0,0,1,7.439,7.618.9.9,0,1,0,1.792,0A9.432,9.432,0,0,0,36.3,67.9H8.783C3.943,67.9,0,72.2,0,77.488v67.846c0,4.929,3.585,8.335,8.783,8.335H36.3c5.377,0,9.231-3.5,9.231-8.245V92.455A.847.847,0,0,0,44.632,91.559Z" transform="translate(0 -67.898)" fill="#353e60"/>
          </g>
        </g>
        <g id="Group_68" data-name="Group 68" transform="translate(31.279 76.791)">
          <g id="Group_67" data-name="Group 67">
            <path id="Path_2010" data-name="Path 2010" d="M148.025,394.766a.907.907,0,1,0-1.7.627,3.944,3.944,0,0,1,.179.9,2.6,2.6,0,1,1-2.6-2.6,2.273,2.273,0,0,1,1.075.179.883.883,0,0,0,.717-1.613,3.637,3.637,0,0,0-1.7-.359,4.392,4.392,0,0,0,0,8.783,4.29,4.29,0,0,0,4.3-4.481A4.059,4.059,0,0,0,148.025,394.766Z" transform="translate(-139.6 -391.898)" fill="#353e60"/>
          </g>
        </g>
        <g id="Group_70" data-name="Group 70" transform="translate(43.51 29.99)">
          <g id="Group_69" data-name="Group 69" transform="translate(0 0)">
            <path id="Path_2011" data-name="Path 2011" d="M209.473,183.039a.922.922,0,0,0-1.075.627l-14.16,52.968a.851.851,0,0,0,.627,1.076h.269a.861.861,0,0,0,.807-.627l14.16-52.968A.851.851,0,0,0,209.473,183.039Z" transform="translate(-194.19 -183.021)" fill="#353e60"/>
          </g>
        </g>
        <g id="Group_72" data-name="Group 72" transform="translate(18.931)">
          <g id="Group_71" data-name="Group 71" transform="translate(0 0)">
            <path id="Path_2012" data-name="Path 2012" d="M121.935,56.594l-26.528-7.08c-4.481-1.165-9.052.717-10.844,4.571a.883.883,0,1,0,1.613.717c1.434-3.047,5.109-4.571,8.783-3.585l26.528,7.08a7.235,7.235,0,0,1,5.2,8.962.851.851,0,0,0,.627,1.076h.269a.908.908,0,0,0,.807-.538A9.176,9.176,0,0,0,121.935,56.594Z" transform="translate(-84.493 -49.171)" fill="#353e60"/>
          </g>
        </g>
        <g id="Group_74" data-name="Group 74" transform="translate(42.843 36.374)">
          <g id="Group_73" data-name="Group 73">
            <path id="Path_2013" data-name="Path 2013" d="M220.517,211.6a.992.992,0,0,0-1.255.359l-27.962,48.4a.992.992,0,0,0,.358,1.255.808.808,0,0,0,.448.09.784.784,0,0,0,.807-.448l27.962-48.4A.964.964,0,0,0,220.517,211.6Z" transform="translate(-191.214 -211.512)" fill="#353e60"/>
          </g>
        </g>
        <g id="Group_76" data-name="Group 76" transform="translate(39.368 0.102)">
          <g id="Group_75" data-name="Group 75">
            <path id="Path_2014" data-name="Path 2014" d="M211.349,64.565,187.51,50.852A9.112,9.112,0,0,0,175.859,53a.9.9,0,1,0,1.434,1.075,7.335,7.335,0,0,1,9.41-1.792L210.453,66a7.349,7.349,0,0,1,2.689,10.038l-1.524,2.689a.992.992,0,0,0,.358,1.255.974.974,0,0,0,1.165-.269l1.524-2.689A9.107,9.107,0,0,0,211.349,64.565Z" transform="translate(-175.702 -49.626)" fill="#353e60"/>
          </g>
        </g>
        <g id="Group_78" data-name="Group 78" transform="translate(41.316 45.781)">
          <g id="Group_77" data-name="Group 77">
            <path id="Path_2015" data-name="Path 2015" d="M226.7,253.767a.866.866,0,0,0-1.255,0l-40.779,40.779a.866.866,0,0,0,0,1.255.814.814,0,0,0,.627.269.7.7,0,0,0,.627-.269L226.7,255.022A.866.866,0,0,0,226.7,253.767Z" transform="translate(-184.4 -253.498)" fill="#353e60"/>
          </g>
        </g>
        <g id="Group_80" data-name="Group 80" transform="translate(59.448 5.064)">
          <g id="Group_79" data-name="Group 79" transform="translate(0 0)">
            <path id="Path_2016" data-name="Path 2016" d="M296.755,93.847,277.306,74.4a9.211,9.211,0,0,0-11.561-1.075.907.907,0,1,0,.986,1.524,7.334,7.334,0,0,1,9.321.9L295.5,95.191a7.357,7.357,0,0,1,0,10.4l-1.613,1.613a.866.866,0,0,0,0,1.255.814.814,0,0,0,.627.269.677.677,0,0,0,.627-.358l1.613-1.613A9.088,9.088,0,0,0,296.755,93.847Z" transform="translate(-265.325 -71.771)" fill="#353e60"/>
          </g>
        </g>
        <g id="Group_82" data-name="Group 82" transform="translate(40.025 56.679)">
          <g id="Group_81" data-name="Group 81" transform="translate(0 0)">
            <path id="Path_2017" data-name="Path 2017" d="M234.239,302.619a.907.907,0,0,0-1.255-.358l-53.864,31.1a.907.907,0,0,0-.358,1.255,1.069,1.069,0,0,0,.807.448.974.974,0,0,0,.448-.09l53.864-31.1A.907.907,0,0,0,234.239,302.619Z" transform="translate(-178.636 -302.134)" fill="#353e60"/>
          </g>
        </g>
        <g id="Group_84" data-name="Group 84" transform="translate(77.814 14.682)">
          <g id="Group_83" data-name="Group 83" transform="translate(0 0)">
            <path id="Path_2018" data-name="Path 2018" d="M372.994,143.109l-13.712-23.84a9.038,9.038,0,0,0-10.038-4.3,6.716,6.716,0,0,0-1.434.448.883.883,0,1,0,.717,1.613,5.053,5.053,0,0,1,1.075-.359,7.471,7.471,0,0,1,8.066,3.5l13.712,23.84a7.349,7.349,0,0,1-2.689,10.038l-2.151,1.255a.907.907,0,0,0-.358,1.255,1.069,1.069,0,0,0,.807.448,1.274,1.274,0,0,0,.538-.179l2.151-1.255A9.165,9.165,0,0,0,372.994,143.109Z" transform="translate(-347.293 -114.699)" fill="#353e60"/>
          </g>
        </g>
        <g id="Group_86" data-name="Group 86" transform="translate(38.61 28.285)">
          <g id="Group_85" data-name="Group 85">
            <path id="Path_2019" data-name="Path 2019" d="M245.383,208.679l-7.08-26.529A9.223,9.223,0,0,0,228,175.518a.862.862,0,0,0,.269,1.7,7.485,7.485,0,0,1,8.245,5.377l7.08,26.529a7.256,7.256,0,0,1-.627,5.467,7.179,7.179,0,0,1-4.481,3.585L172.968,234.76a.922.922,0,0,0-.627,1.075.944.944,0,0,0,.9.717.278.278,0,0,0,.179-.09l65.515-16.58a8.949,8.949,0,0,0,5.646-4.392A9.093,9.093,0,0,0,245.383,208.679Z" transform="translate(-172.323 -175.409)" fill="#353e60"/>
          </g>
        </g>
        <g id="Group_88" data-name="Group 88" transform="translate(33.25 68.546)">
          <g id="Group_87" data-name="Group 87" transform="translate(0 0)">
            <path id="Path_2020" data-name="Path 2020" d="M224.49,355.1a.847.847,0,0,0-.9.9v12.189c0,4.123-4.033,6.543-7.887,6.543H149.3a.9.9,0,1,0,0,1.792h66.411c4.75,0,9.679-3.137,9.679-8.335V355.994A.847.847,0,0,0,224.49,355.1Z" transform="translate(-148.4 -355.098)" fill="#353e60"/>
          </g>
        </g>
        <g id="Group_90" data-name="Group 90" transform="translate(106.047 46.163)">
          <g id="Group_89" data-name="Group 89">
            <path id="Path_2021" data-name="Path 2021" d="M474.713,255.357a.9.9,0,1,0-1.076,1.434c1.076.9,3.585,3.226,3.675,5.736l-.9,5.2a.93.93,0,0,0,.717,1.076h.179a.965.965,0,0,0,.9-.717l.9-5.288v-.179C479.1,259.3,476.327,256.7,474.713,255.357Z" transform="translate(-473.302 -255.2)" fill="#353e60"/>
          </g>
        </g>
      </g>
      <g id="golden-ratio" transform="translate(4.99 37.415)">
        <g id="Group_133" data-name="Group 133" transform="translate(0)">
          <path id="Path_2043" data-name="Path 2043" d="M20.22,81.213a.387.387,0,0,1-.387-.387A20.649,20.649,0,0,1,40.459,60.2a.387.387,0,0,1,0,.775A19.873,19.873,0,0,0,20.608,80.826.387.387,0,0,1,20.22,81.213Z" transform="translate(-19.833 -60.2)" fill="#353e60" stroke="#353e60" stroke-width="1"/>
          <path id="Path_2044" data-name="Path 2044" d="M163.331,73.486a.387.387,0,0,1-.387-.387A12.137,12.137,0,0,0,150.82,60.975a.387.387,0,0,1,0-.775,12.913,12.913,0,0,1,12.9,12.9.387.387,0,0,1-.387.387Z" transform="translate(-130.195 -60.2)" fill="#353e60" stroke="#353e60" stroke-width="1"/>
          <path id="Path_2045" data-name="Path 2045" d="M181.687,149.437a.387.387,0,1,1,0-.775,7.348,7.348,0,0,0,7.34-7.34.387.387,0,1,1,.775,0A8.124,8.124,0,0,1,181.687,149.437Z" transform="translate(-156.279 -128.424)" fill="#353e60" stroke="#353e60" stroke-width="1"/>
          <path id="Path_2046" data-name="Path 2046" d="M155.6,165.489a5.177,5.177,0,0,1-5.171-5.171.387.387,0,1,1,.775,0,4.4,4.4,0,0,0,4.4,4.4.387.387,0,1,1,0,.775Z" transform="translate(-130.194 -144.476)" fill="#353e60" stroke="#353e60" stroke-width="1"/>
          <path id="Path_2047" data-name="Path 2047" d="M150.82,144.65a.387.387,0,0,1-.387-.387,3.335,3.335,0,0,1,3.332-3.332.387.387,0,1,1,0,.775,2.559,2.559,0,0,0-2.557,2.557A.387.387,0,0,1,150.82,144.65Z" transform="translate(-130.195 -128.421)" fill="#353e60" stroke="#353e60" stroke-width="1"/>
          <path id="Path_2048" data-name="Path 2048" d="M171.654,143.55a.387.387,0,0,1-.387-.387,1.454,1.454,0,0,0-1.452-1.452.387.387,0,0,1,0-.775,2.23,2.23,0,0,1,2.227,2.227A.387.387,0,0,1,171.654,143.55Z" transform="translate(-146.246 -128.424)" fill="#353e60" stroke="#353e60" stroke-width="1"/>
        </g>
        <path id="Path_2049" data-name="Path 2049" d="M52.969,60.2H20.22a.387.387,0,0,0-.387.387V80.826a.387.387,0,0,0,.387.387H52.969a.387.387,0,0,0,.387-.387V60.587A.387.387,0,0,0,52.969,60.2Zm-.387,12.511H40.846V60.975H52.582Zm-7.727,2.944H43.79V73.486h1.065Zm-4.009-2.169h2.169v2.169H40.846ZM20.608,60.975H40.071V80.438H20.608ZM40.846,76.43h4.008v4.009H40.846Zm11.736,4.009H45.629V73.486h6.953Z" transform="translate(-19.833 -60.2)" fill="#353e60" stroke="#353e60" stroke-width="1"/>
      </g>
    </g>
  </g>
</svg>
