<svg xmlns="http://www.w3.org/2000/svg" width="49.849" height="90.5" viewBox="0 0 49.849 90.5">
  <g id="smartphone" transform="translate(-80.554 0.25)">
    <g id="Group_92" data-name="Group 92" transform="translate(80.804)">
      <g id="Group_91" data-name="Group 91" transform="translate(0)">
        <path id="Path_2022" data-name="Path 2022" d="M120.72,0H90.3a9.414,9.414,0,0,0-9.5,9.368V80.632A9.441,9.441,0,0,0,90.3,90h30.483a9.358,9.358,0,0,0,9.368-9.368V9.433A9.483,9.483,0,0,0,120.72,0Zm8,80.481h0a7.931,7.931,0,0,1-7.94,7.94H90.3a8.1,8.1,0,0,1-8.091-7.94V9.281A8.09,8.09,0,0,1,90.3,1.341H120.72a8.015,8.015,0,0,1,8,7.94Z" transform="translate(-80.804)" fill="#fff" stroke="#fff" stroke-width="0.5"/>
      </g>
    </g>
    <g id="Group_94" data-name="Group 94" transform="translate(84.391 12.013)">
      <g id="Group_93" data-name="Group 93" transform="translate(0)">
        <path id="Path_2023" data-name="Path 2023" d="M136.677,47.665h-2.851v.022h0a.711.711,0,1,0,0,1.422h2.117V94.724L132.9,91.685a.7.7,0,1,0-.993.991l4.039,4.029V111.25H96.313v-61.8l15.852,15.815a.626.626,0,0,0,.5.215.728.728,0,0,0,.5-.215.688.688,0,0,0,0-.991L97.933,49.087h29.523a.711.711,0,1,0,0-1.422H96.529l-.216-.215a.692.692,0,0,0-.993,0,.668.668,0,0,0-.194.388.654.654,0,0,0-.216.539V111.94a.668.668,0,0,0,.713.711h41.056a.668.668,0,0,0,.713-.711V48.376A.668.668,0,0,0,136.677,47.665Z" transform="translate(-94.909 -47.239)" fill="#fff" stroke="#fff" stroke-width="0.5"/>
      </g>
    </g>
    <g id="Group_96" data-name="Group 96" transform="translate(99.866 6.737)">
      <g id="Group_95" data-name="Group 95" transform="translate(0)">
        <path id="Path_2024" data-name="Path 2024" d="M167.595,26.491H157.556a.677.677,0,0,0-.722.722.689.689,0,0,0,.722.722h10.039a.722.722,0,1,0,0-1.443Z" transform="translate(-156.834 -26.491)" fill="#fff" stroke="#fff" stroke-width="0.5"/>
      </g>
    </g>
    <g id="Group_98" data-name="Group 98" transform="translate(96.462 6.37)">
      <g id="Group_97" data-name="Group 97">
        <path id="Path_2025" data-name="Path 2025" d="M144.3,25.263a.7.7,0,0,0-1.006,0,.633.633,0,0,0-.219.5.736.736,0,0,0,.219.5.6.6,0,0,0,.5.219.711.711,0,0,0,.5-1.225Z" transform="translate(-143.073 -25.049)" fill="#fff" stroke="#fff" stroke-width="0.5"/>
      </g>
    </g>
    <g id="Group_100" data-name="Group 100" transform="translate(104.856 32.312)">
      <g id="Group_99" data-name="Group 99">
        <path id="Path_2026" data-name="Path 2026" d="M184.942,135.9l-7.086-7.086a.711.711,0,1,0-1.006,1.006l7.086,7.086a.712.712,0,0,0,.5.219.633.633,0,0,0,.5-.219A.7.7,0,0,0,184.942,135.9Z" transform="translate(-176.637 -128.602)" fill="#fff" stroke="#fff" stroke-width="0.5"/>
      </g>
    </g>
    <g id="Group_102" data-name="Group 102" transform="translate(97.731 32.861)">
      <g id="Group_101" data-name="Group 101">
        <path id="Path_2027" data-name="Path 2027" d="M170.551,151.956,149.9,131.31a.711.711,0,0,0-1.006,1.006l20.647,20.647a.688.688,0,0,0,1.006,0A.7.7,0,0,0,170.551,151.956Z" transform="translate(-148.686 -131.097)" fill="#fff" stroke="#fff" stroke-width="0.5"/>
      </g>
    </g>
    <g id="Group_104" data-name="Group 104" transform="translate(101.057 78.556)">
      <g id="Group_103" data-name="Group 103" transform="translate(0)">
        <path id="Path_2028" data-name="Path 2028" d="M169.871,316.051a.711.711,0,0,0-1.378.35,2.8,2.8,0,1,1-3.368-2.078,3.824,3.824,0,0,1,1.225,0,.725.725,0,0,0,.284-1.422,3.821,3.821,0,0,0-1.859,0,4.295,4.295,0,0,0,1.006,8.464,1.943,1.943,0,0,0,.94-.153A4.27,4.27,0,0,0,169.871,316.051Z" transform="translate(-161.5 -312.787)" fill="#fff" stroke="#fff" stroke-width="0.5"/>
      </g>
    </g>
  </g>
</svg>
