<svg xmlns="http://www.w3.org/2000/svg" width="132.958" height="139.528" viewBox="0 0 132.958 139.528">
  <g id="rocket_1_" data-name="rocket (1)" transform="translate(-11.838 0.25)">
    <g id="Group_151" data-name="Group 151" transform="translate(66.261 6.516)">
      <g id="Group_150" data-name="Group 150">
        <path id="Path_2057" data-name="Path 2057" d="M278.258,35.458a39.115,39.115,0,0,0-63.6,43.085,1.087,1.087,0,0,0,2-.859,36.926,36.926,0,1,1,19.4,19.388,1.085,1.085,0,1,0-.857,1.994,39.106,39.106,0,0,0,43.058-63.608Z" transform="translate(-211.449 -23.98)" fill="#353e60" stroke="#353e60" stroke-width="0.5"/>
      </g>
    </g>
    <g id="Group_153" data-name="Group 153" transform="translate(49.037 63.003)">
      <g id="Group_152" data-name="Group 152">
        <path id="Path_2058" data-name="Path 2058" d="M186.784,252.145l-19.969-19.969a1.086,1.086,0,0,0-1.536,0l-16.9,16.9a1.084,1.084,0,0,0-.318.768v6.143a1.084,1.084,0,0,0,.318.768l13.825,13.827a1.085,1.085,0,0,0,.768.318h0l6.142,0a1.085,1.085,0,0,0,.767-.318l16.9-16.895a1.085,1.085,0,0,0,0-1.536Zm-18.117,16.576-5.242,0-13.189-13.191h0v-5.244l15.811-15.811,18.433,18.433Z" transform="translate(-148.065 -231.858)" fill="#353e60" stroke="#353e60" stroke-width="0.5"/>
      </g>
    </g>
    <g id="Group_155" data-name="Group 155" transform="translate(55.181 73.757)">
      <g id="Group_154" data-name="Group 154">
        <path id="Path_2059" data-name="Path 2059" d="M193.974,290.13,172.468,271.7a1.085,1.085,0,1,0-1.413,1.646l21.506,18.435a1.082,1.082,0,0,0,1.531-.117A1.082,1.082,0,0,0,193.974,290.13Z" transform="translate(-170.675 -271.433)" fill="#353e60" stroke="#353e60" stroke-width="0.5"/>
      </g>
    </g>
    <g id="Group_157" data-name="Group 157" transform="translate(59.789 69.146)">
      <g id="Group_156" data-name="Group 156">
        <path id="Path_2060" data-name="Path 2060" d="M210.932,273.165l-21.506-18.438a1.086,1.086,0,0,0-1.413,1.649l21.506,18.436a1.08,1.08,0,0,0,1.53-.117A1.084,1.084,0,0,0,210.932,273.165Z" transform="translate(-187.633 -254.465)" fill="#353e60" stroke="#353e60" stroke-width="0.5"/>
      </g>
    </g>
    <g id="Group_159" data-name="Group 159" transform="translate(50.573 78.365)">
      <g id="Group_158" data-name="Group 158">
        <path id="Path_2061" data-name="Path 2061" d="M177.014,307.087l-21.506-18.435A1.085,1.085,0,1,0,154.1,290.3L175.6,308.733a1.082,1.082,0,0,0,1.531-.117A1.082,1.082,0,0,0,177.014,307.087Z" transform="translate(-153.715 -288.39)" fill="#353e60" stroke="#353e60" stroke-width="0.5"/>
      </g>
    </g>
    <g id="Group_161" data-name="Group 161" transform="translate(49.683 87.579)">
      <g id="Group_160" data-name="Group 160">
        <path id="Path_2062" data-name="Path 2062" d="M163.944,333.4a1.093,1.093,0,0,0-1.528-.034c-.1.089-2.453,2.181-6.928-2.3-4.441-4.446-2.406-6.8-2.293-6.924a1.086,1.086,0,0,0-1.548-1.523c-.157.157-3.768,3.9,2.3,9.983,2.323,2.325,4.576,3.5,6.7,3.5.127,0,.254,0,.379-.013a4.66,4.66,0,0,0,2.9-1.179A1.078,1.078,0,0,0,163.944,333.4Z" transform="translate(-150.44 -322.3)" fill="#353e60" stroke="#353e60" stroke-width="0.5"/>
      </g>
    </g>
    <g id="Group_163" data-name="Group 163" transform="translate(70.532 84.502)">
      <g id="Group_162" data-name="Group 162">
        <path id="Path_2063" data-name="Path 2063" d="M242.958,311.42a1.087,1.087,0,1,0-1.752,1.286c.076.1,7.217,10.208-5.394,23.991-.943-4.086-3.295-11.854-7.547-11.9a1.059,1.059,0,0,0-1.1,1.074,1.086,1.086,0,0,0,1.074,1.1c2.522.027,4.944,7.132,5.857,12.168a1.086,1.086,0,0,0,.745.84,1.063,1.063,0,0,0,.324.051,1.082,1.082,0,0,0,.768-.319C251.775,323.875,243.047,311.543,242.958,311.42Z" transform="translate(-227.168 -310.975)" fill="#353e60" stroke="#353e60" stroke-width="0.5"/>
      </g>
    </g>
    <g id="Group_165" data-name="Group 165" transform="translate(37.508 62.261)">
      <g id="Group_164" data-name="Group 164">
        <path id="Path_2064" data-name="Path 2064" d="M134.244,231.6c-.122-.089-12.457-8.813-28.291,7.024a1.087,1.087,0,0,0,.574,1.837c5.036.912,12.14,3.333,12.166,5.855a1.086,1.086,0,0,0,1.086,1.073h.012a1.086,1.086,0,0,0,1.074-1.1c-.045-4.249-7.815-6.6-11.9-7.544,13.7-12.556,23.574-5.7,24-5.393a1.087,1.087,0,0,0,1.282-1.754Z" transform="translate(-105.635 -229.128)" fill="#353e60" stroke="#353e60" stroke-width="0.5"/>
      </g>
    </g>
    <g id="Group_167" data-name="Group 167" transform="translate(65.934 59.562)">
      <g id="Group_166" data-name="Group 166">
        <path id="Path_2065" data-name="Path 2065" d="M215.55,219.514a1.085,1.085,0,0,0-1.536,0l-3.449,3.441a1.086,1.086,0,1,0,1.534,1.538l3.449-3.441A1.086,1.086,0,0,0,215.55,219.514Z" transform="translate(-210.246 -219.194)" fill="#353e60" stroke="#353e60" stroke-width="0.5"/>
      </g>
    </g>
    <g id="Group_169" data-name="Group 169" transform="translate(85.903 79.522)">
      <g id="Group_168" data-name="Group 168">
        <path id="Path_2066" data-name="Path 2066" d="M289.042,292.968a1.085,1.085,0,0,0-1.536,0l-3.453,3.449a1.086,1.086,0,1,0,1.535,1.536l3.454-3.449A1.086,1.086,0,0,0,289.042,292.968Z" transform="translate(-283.734 -292.65)" fill="#353e60" stroke="#353e60" stroke-width="0.5"/>
      </g>
    </g>
    <g id="Group_171" data-name="Group 171" transform="translate(75.149 58.393)">
      <g id="Group_170" data-name="Group 170">
        <path id="Path_2067" data-name="Path 2067" d="M253.693,215.211a1.085,1.085,0,0,0-1.536,0l-7.68,7.682a1.086,1.086,0,1,0,1.536,1.536l7.68-7.682A1.085,1.085,0,0,0,253.693,215.211Z" transform="translate(-244.159 -214.892)" fill="#353e60" stroke="#353e60" stroke-width="0.5"/>
      </g>
    </g>
    <g id="Group_173" data-name="Group 173" transform="translate(82.829 66.075)">
      <g id="Group_172" data-name="Group 172">
        <path id="Path_2068" data-name="Path 2068" d="M281.958,243.479a1.086,1.086,0,0,0-1.536,0l-7.681,7.682a1.086,1.086,0,1,0,1.536,1.536l7.681-7.682A1.085,1.085,0,0,0,281.958,243.479Z" transform="translate(-272.423 -243.161)" fill="#353e60" stroke="#353e60" stroke-width="0.5"/>
      </g>
    </g>
    <g id="Group_175" data-name="Group 175" transform="translate(82.829 58.395)">
      <g id="Group_174" data-name="Group 174">
        <path id="Path_2069" data-name="Path 2069" d="M280.531,215.665l-6.905-.762a1.086,1.086,0,1,0-.237,2.159l6.905.762a1.178,1.178,0,0,0,.118.006,1.086,1.086,0,0,0,.119-2.166Z" transform="translate(-272.421 -214.898)" fill="#353e60" stroke="#353e60" stroke-width="0.5"/>
      </g>
    </g>
    <g id="Group_177" data-name="Group 177" transform="translate(89.734 59.156)">
      <g id="Group_176" data-name="Group 176">
        <path id="Path_2070" data-name="Path 2070" d="M300.774,225.584l-.776-6.92a1.086,1.086,0,0,0-2.159.242l.776,6.92a1.086,1.086,0,0,0,1.08.965,1.154,1.154,0,0,0,.121-.007A1.087,1.087,0,0,0,300.774,225.584Z" transform="translate(-297.832 -217.699)" fill="#353e60" stroke="#353e60" stroke-width="0.5"/>
      </g>
    </g>
    <g id="Group_179" data-name="Group 179" transform="translate(85.964 44.57)">
      <g id="Group_178" data-name="Group 178">
        <path id="Path_2071" data-name="Path 2071" d="M296.5,164.341a1.085,1.085,0,0,0-1.536,0l-10.69,10.688a1.086,1.086,0,1,0,1.536,1.536l10.69-10.687A1.086,1.086,0,0,0,296.5,164.341Z" transform="translate(-283.96 -164.023)" fill="#353e60" stroke="#353e60" stroke-width="0.5"/>
      </g>
    </g>
    <g id="Group_181" data-name="Group 181" transform="translate(90.511 37.154)">
      <g id="Group_180" data-name="Group 180">
        <path id="Path_2072" data-name="Path 2072" d="M308.689,138.321a5.429,5.429,0,0,0-7.68,0,1.086,1.086,0,1,0,1.536,1.536,3.333,3.333,0,0,1,4.608,0,3.255,3.255,0,0,1,0,4.607A1.086,1.086,0,1,0,308.689,146a5.429,5.429,0,0,0,0-7.679Z" transform="translate(-300.691 -136.73)" fill="#353e60" stroke="#353e60" stroke-width="0.5"/>
      </g>
    </g>
    <g id="Group_183" data-name="Group 183" transform="translate(89.236 38.427)">
      <g id="Group_182" data-name="Group 182">
        <path id="Path_2073" data-name="Path 2073" d="M298.171,145.573a3.238,3.238,0,0,1,.956-2.3,1.087,1.087,0,0,0-1.536-1.538,5.426,5.426,0,0,0,0,7.681,1.087,1.087,0,0,0,1.536-1.538A3.237,3.237,0,0,1,298.171,145.573Z" transform="translate(-295.998 -141.415)" fill="#353e60" stroke="#353e60" stroke-width="0.5"/>
      </g>
    </g>
    <g id="Group_185" data-name="Group 185" transform="translate(93.646 52.25)">
      <g id="Group_184" data-name="Group 184">
        <path id="Path_2074" data-name="Path 2074" d="M324.771,192.6a1.086,1.086,0,0,0-1.536,0l-10.688,10.69a1.086,1.086,0,1,0,1.536,1.536l10.688-10.69A1.086,1.086,0,0,0,324.771,192.6Z" transform="translate(-312.229 -192.285)" fill="#353e60" stroke="#353e60" stroke-width="0.5"/>
      </g>
    </g>
    <g id="Group_187" data-name="Group 187" transform="translate(104.334 50.98)">
      <g id="Group_186" data-name="Group 186" transform="translate(0)">
        <path id="Path_2075" data-name="Path 2075" d="M359.56,189.2a5.438,5.438,0,0,0-7.681,0,1.086,1.086,0,0,0,1.536,1.536,3.337,3.337,0,0,1,4.607,0,3.258,3.258,0,0,1,0,4.608,1.086,1.086,0,1,0,1.536,1.536A5.44,5.44,0,0,0,359.56,189.2Z" transform="translate(-351.56 -187.611)" fill="#353e60" stroke="#353e60" stroke-width="0.5"/>
      </g>
    </g>
    <g id="Group_189" data-name="Group 189" transform="translate(104.334 58.394)">
      <g id="Group_188" data-name="Group 188">
        <path id="Path_2076" data-name="Path 2076" d="M359.56,215.212a1.085,1.085,0,0,0-1.536,0,3.263,3.263,0,0,1-4.609,0,1.086,1.086,0,1,0-1.536,1.536,5.436,5.436,0,0,0,7.681,0A1.085,1.085,0,0,0,359.56,215.212Z" transform="translate(-351.56 -214.893)" fill="#353e60" stroke="#353e60" stroke-width="0.5"/>
      </g>
    </g>
    <g id="Group_191" data-name="Group 191" transform="translate(96.654 50.714)">
      <g id="Group_190" data-name="Group 190">
        <path id="Path_2077" data-name="Path 2077" d="M326.69,188.486l-1.536-1.536a1.086,1.086,0,1,0-1.536,1.536l1.536,1.536a1.086,1.086,0,0,0,1.536-1.536Z" transform="translate(-323.3 -186.632)" fill="#353e60" stroke="#353e60" stroke-width="0.5"/>
      </g>
    </g>
    <g id="Group_193" data-name="Group 193" transform="translate(86.671 16.495)">
      <g id="Group_192" data-name="Group 192">
        <path id="Path_2078" data-name="Path 2078" d="M323.741,68.344a26.048,26.048,0,0,0-36.864,0,1.086,1.086,0,1,0,1.536,1.536,23.877,23.877,0,0,1,33.792,0,1.086,1.086,0,0,0,1.536-1.536Z" transform="translate(-286.559 -60.702)" fill="#353e60" stroke="#353e60" stroke-width="0.5"/>
      </g>
    </g>
    <g id="Group_195" data-name="Group 195" transform="translate(29.854 102.789)">
      <g id="Group_194" data-name="Group 194">
        <path id="Path_2079" data-name="Path 2079" d="M94.672,379.5a4.447,4.447,0,0,0-6.144,0c-.138.138-13.208,14.44-10.753,16.895a1.485,1.485,0,0,0,1.084.424c3.2,0,15.7-11.065,15.813-11.176A4.351,4.351,0,0,0,94.672,379.5Zm-1.536,4.608c-1.57,1.57-9.835,8.282-13.162,10.089,1.81-3.327,8.52-11.592,10.091-13.161a2.171,2.171,0,0,1,3.072,0A2.178,2.178,0,0,1,93.137,384.112Z" transform="translate(-77.469 -378.272)" fill="#353e60" stroke="#353e60" stroke-width="0.5"/>
      </g>
    </g>
    <g id="Group_197" data-name="Group 197" transform="translate(22.966 96.23)">
      <g id="Group_196" data-name="Group 196">
        <path id="Path_2080" data-name="Path 2080" d="M80.819,357.319a10.858,10.858,0,0,0-15.36,0c-1.993,1.994-6.074,7.645-9.191,13.3-4.171,7.567-5.185,12.259-3.1,14.345a4.037,4.037,0,0,0,2.974,1.044c6.764,0,21.352-10.009,24.674-13.331A10.872,10.872,0,0,0,80.819,357.319Zm-1.536,13.823c-3.477,3.479-17.437,12.694-23.138,12.694a2.017,2.017,0,0,1-1.438-.407c-.9-.9-.529-4.514,3.464-11.761C61.1,366.352,65.1,360.751,67,358.855a8.688,8.688,0,1,1,12.288,12.287Z" transform="translate(-52.12 -354.137)" fill="#353e60" stroke="#353e60" stroke-width="0.5"/>
      </g>
    </g>
    <g id="Group_199" data-name="Group 199" transform="translate(120.702 121.649)">
      <g id="Group_198" data-name="Group 198">
        <path id="Path_2081" data-name="Path 2081" d="M412.9,447.68h-.021a1.077,1.077,0,0,0-1.078,1.086,1.093,1.093,0,1,0,1.1-1.086Z" transform="translate(-411.797 -447.68)" fill="#353e60" stroke="#353e60" stroke-width="0.5"/>
      </g>
    </g>
    <g id="Group_201" data-name="Group 201" transform="translate(31.639)">
      <g id="Group_200" data-name="Group 200">
        <path id="Path_2082" data-name="Path 2082" d="M85.133,0h-.021a1.077,1.077,0,0,0-1.076,1.086A1.092,1.092,0,1,0,85.133,0Z" transform="translate(-84.036)" fill="#353e60" stroke="#353e60" stroke-width="0.5"/>
      </g>
    </g>
    <g id="Group_203" data-name="Group 203" transform="translate(72.912 4.344)">
      <g id="Group_202" data-name="Group 202">
        <path id="Path_2083" data-name="Path 2083" d="M237.024,15.988H237a1.077,1.077,0,0,0-1.076,1.086,1.091,1.091,0,1,0,1.1-1.086Z" transform="translate(-235.927 -15.988)" fill="#353e60" stroke="#353e60" stroke-width="0.5"/>
      </g>
    </g>
    <g id="Group_205" data-name="Group 205" transform="translate(12.088 26.068)">
      <g id="Group_204" data-name="Group 204">
        <path id="Path_2084" data-name="Path 2084" d="M13.185,95.931h-.021a1.077,1.077,0,0,0-1.076,1.086,1.091,1.091,0,1,0,1.1-1.086Z" transform="translate(-12.088 -95.931)" fill="#353e60" stroke="#353e60" stroke-width="0.5"/>
      </g>
    </g>
    <g id="Group_207" data-name="Group 207" transform="translate(27.294 89.064)">
      <g id="Group_206" data-name="Group 206" transform="translate(0)">
        <path id="Path_2085" data-name="Path 2085" d="M69.144,327.765h-.021a1.077,1.077,0,0,0-1.076,1.086,1.091,1.091,0,1,0,1.1-1.086Z" transform="translate(-68.047 -327.765)" fill="#353e60" stroke="#353e60" stroke-width="0.5"/>
      </g>
    </g>
    <g id="Group_209" data-name="Group 209" transform="translate(81.486 134.683)">
      <g id="Group_208" data-name="Group 208">
        <path id="Path_2086" data-name="Path 2086" d="M268.578,495.646h-.021a1.077,1.077,0,0,0-1.077,1.086,1.093,1.093,0,1,0,1.1-1.086Z" transform="translate(-267.479 -495.646)" fill="#353e60" stroke="#353e60" stroke-width="0.5"/>
      </g>
    </g>
    <g id="Group_211" data-name="Group 211" transform="translate(133.736 136.855)">
      <g id="Group_210" data-name="Group 210">
        <path id="Path_2087" data-name="Path 2087" d="M460.863,503.64h-.021a1.077,1.077,0,0,0-1.077,1.086,1.093,1.093,0,1,0,1.1-1.086Z" transform="translate(-459.764 -503.64)" fill="#353e60" stroke="#353e60" stroke-width="0.5"/>
      </g>
    </g>
    <g id="Group_213" data-name="Group 213" transform="translate(101.151 95.582)">
      <g id="Group_212" data-name="Group 212" transform="translate(0)">
        <path id="Path_2088" data-name="Path 2088" d="M340.947,351.749h-.021a1.077,1.077,0,0,0-1.078,1.086,1.093,1.093,0,1,0,1.1-1.086Z" transform="translate(-339.848 -351.749)" fill="#353e60" stroke="#353e60" stroke-width="0.5"/>
      </g>
    </g>
    <g id="Group_215" data-name="Group 215" transform="translate(138.081 89.064)">
      <g id="Group_214" data-name="Group 214">
        <path id="Path_2089" data-name="Path 2089" d="M476.852,327.765h-.021a1.077,1.077,0,0,0-1.077,1.086,1.093,1.093,0,1,0,1.1-1.086Z" transform="translate(-475.753 -327.765)" fill="#353e60" stroke="#353e60" stroke-width="0.5"/>
      </g>
    </g>
    <g id="Group_217" data-name="Group 217" transform="translate(116.357 115.132)">
      <g id="Group_216" data-name="Group 216">
        <path id="Path_2090" data-name="Path 2090" d="M396.908,423.7h-.021a1.077,1.077,0,0,0-1.078,1.086,1.093,1.093,0,1,0,1.1-1.086Z" transform="translate(-395.809 -423.697)" fill="#353e60" stroke="#353e60" stroke-width="0.5"/>
      </g>
    </g>
    <g id="Group_219" data-name="Group 219" transform="translate(111.96 106.443)">
      <g id="Group_218" data-name="Group 218">
        <path id="Path_2091" data-name="Path 2091" d="M390.486,391.719a10.862,10.862,0,1,0,10.862,10.862A10.875,10.875,0,0,0,390.486,391.719Zm0,19.551a8.689,8.689,0,1,1,8.69-8.689A8.7,8.7,0,0,1,390.486,411.27Z" transform="translate(-379.625 -391.719)" fill="#353e60" stroke="#353e60" stroke-width="0.5"/>
      </g>
    </g>
    <g id="Group_221" data-name="Group 221" transform="translate(122.821 110.788)">
      <g id="Group_220" data-name="Group 220">
        <path id="Path_2092" data-name="Path 2092" d="M422.855,407.709a3.258,3.258,0,1,0,3.259,3.258A3.262,3.262,0,0,0,422.855,407.709Zm0,4.344a1.086,1.086,0,1,1,1.086-1.086A1.087,1.087,0,0,1,422.855,412.053Z" transform="translate(-419.596 -407.709)" fill="#353e60" stroke="#353e60" stroke-width="0.5"/>
      </g>
    </g>
    <g id="Group_223" data-name="Group 223" transform="translate(94.581 115.132)">
      <g id="Group_222" data-name="Group 222">
        <path id="Path_2093" data-name="Path 2093" d="M316.757,423.7a1.086,1.086,0,0,0-1.086,1.086v8.689a1.086,1.086,0,1,0,2.172,0v-8.689A1.085,1.085,0,0,0,316.757,423.7Z" transform="translate(-315.671 -423.697)" fill="#353e60" stroke="#353e60" stroke-width="0.5"/>
      </g>
    </g>
    <g id="Group_225" data-name="Group 225" transform="translate(92.409 119.477)">
      <g id="Group_224" data-name="Group 224">
        <path id="Path_2094" data-name="Path 2094" d="M313.108,439.686h-4.344a1.086,1.086,0,1,0,0,2.172h4.344a1.086,1.086,0,0,0,0-2.172Z" transform="translate(-307.677 -439.686)" fill="#353e60" stroke="#353e60" stroke-width="0.5"/>
      </g>
    </g>
    <g id="Group_227" data-name="Group 227" transform="translate(57.652 123.821)">
      <g id="Group_226" data-name="Group 226" transform="translate(0)">
        <path id="Path_2095" data-name="Path 2095" d="M180.854,455.674a1.085,1.085,0,0,0-1.086,1.086v8.689a1.086,1.086,0,0,0,2.173,0V456.76A1.085,1.085,0,0,0,180.854,455.674Z" transform="translate(-179.768 -455.674)" fill="#353e60" stroke="#353e60" stroke-width="0.5"/>
      </g>
    </g>
    <g id="Group_229" data-name="Group 229" transform="translate(55.48 128.166)">
      <g id="Group_228" data-name="Group 228">
        <path id="Path_2096" data-name="Path 2096" d="M177.2,471.663h-4.345a1.086,1.086,0,1,0,0,2.172H177.2a1.086,1.086,0,0,0,0-2.172Z" transform="translate(-171.773 -471.663)" fill="#353e60" stroke="#353e60" stroke-width="0.5"/>
      </g>
    </g>
    <g id="Group_231" data-name="Group 231" transform="translate(57.652 8.689)">
      <g id="Group_230" data-name="Group 230" transform="translate(0)">
        <path id="Path_2097" data-name="Path 2097" d="M180.854,31.976a1.086,1.086,0,0,0-1.086,1.086v8.689a1.086,1.086,0,0,0,2.173,0V33.062A1.086,1.086,0,0,0,180.854,31.976Z" transform="translate(-179.768 -31.976)" fill="#353e60" stroke="#353e60" stroke-width="0.5"/>
      </g>
    </g>
    <g id="Group_233" data-name="Group 233" transform="translate(55.48 13.034)">
      <g id="Group_232" data-name="Group 232">
        <path id="Path_2098" data-name="Path 2098" d="M177.2,47.966h-4.345a1.086,1.086,0,1,0,0,2.172H177.2a1.086,1.086,0,0,0,0-2.172Z" transform="translate(-171.773 -47.966)" fill="#353e60" stroke="#353e60" stroke-width="0.5"/>
      </g>
    </g>
    <g id="Group_235" data-name="Group 235" transform="translate(18.551 58.652)">
      <g id="Group_234" data-name="Group 234" transform="translate(0)">
        <path id="Path_2099" data-name="Path 2099" d="M36.957,215.845a1.086,1.086,0,0,0-1.086,1.086v8.689a1.086,1.086,0,1,0,2.172,0v-8.689A1.086,1.086,0,0,0,36.957,215.845Z" transform="translate(-35.871 -215.845)" fill="#353e60" stroke="#353e60" stroke-width="0.5"/>
      </g>
    </g>
    <g id="Group_237" data-name="Group 237" transform="translate(16.378 62.997)">
      <g id="Group_236" data-name="Group 236">
        <path id="Path_2100" data-name="Path 2100" d="M33.307,231.834H28.962a1.086,1.086,0,1,0,0,2.173h4.344a1.086,1.086,0,0,0,0-2.173Z" transform="translate(-27.876 -231.834)" fill="#353e60" stroke="#353e60" stroke-width="0.5"/>
      </g>
    </g>
    <g id="Group_239" data-name="Group 239" transform="translate(31.585 30.486)">
      <g id="Group_238" data-name="Group 238">
        <path id="Path_2101" data-name="Path 2101" d="M96.815,114.344a7.784,7.784,0,0,0-10.751,0,7.6,7.6,0,1,0,10.751,0Zm-1.536,9.215a5.56,5.56,0,0,1-7.679,0,5.431,5.431,0,1,1,7.679,0Z" transform="translate(-83.837 -112.189)" fill="#353e60" stroke="#353e60" stroke-width="0.5"/>
      </g>
    </g>
    <g id="Group_241" data-name="Group 241" transform="translate(31.957 30.784)">
      <g id="Group_240" data-name="Group 240" transform="translate(0)">
        <path id="Path_2102" data-name="Path 2102" d="M99.348,113.6a1.086,1.086,0,0,0-1.663,1.384c-.04.7-1.351,3.167-4.48,6.3s-5.6,4.44-6.3,4.48a1.086,1.086,0,0,0-1.384,1.663,1.762,1.762,0,0,0,1.3.5c2.65,0,6.947-4.139,7.916-5.108C95.895,121.668,101.541,115.8,99.348,113.6Z" transform="translate(-85.206 -113.286)" fill="#353e60" stroke="#353e60" stroke-width="0.5"/>
      </g>
    </g>
  </g>
</svg>
