<svg xmlns="http://www.w3.org/2000/svg" width="112" height="114.324" viewBox="0 0 112 114.324">
  <g id="announcement" transform="translate(-15 -10)">
    <path id="Path_2103" data-name="Path 2103" d="M21.239,124.324l65.307-.387h0a.834.834,0,0,0,.09,0l38.071-2.692A1.394,1.394,0,0,0,126,119.919l1-20.4a1.394,1.394,0,0,0-1.727-1.421l-9.021,2.229L111.326,91.8a4.8,4.8,0,0,1-.294-3.575c.009-.029.017-.058.023-.088l4.013-16.821a21.784,21.784,0,0,0-1.3-13.762,1.377,1.377,0,0,0-.1-.179l-15.054-23.8V16.183A6.215,6.215,0,0,0,92.39,10H21.231A6.215,6.215,0,0,0,15,16.183V118.14A6.216,6.216,0,0,0,21.239,124.324Zm102.038-5.776-35.27,2.494.537-10.991,27.374-6.765h.005l8.2-2.026ZM111.263,58.773a18.976,18.976,0,0,1,1.092,11.895l-4,16.774a7.581,7.581,0,0,0,.5,5.644c.011.023.023.045.036.067l4.543,7.873-18.556,4.586a12.376,12.376,0,0,0-2.405-4.7L90.1,98.026a17.072,17.072,0,0,1-.881-18.058l.63-1.136a14.716,14.716,0,0,0,1.823-6.387l.551-11.293a7.066,7.066,0,0,1,6.028-6.579l-.762,8.012a48.322,48.322,0,0,0-.016,8.955,1.394,1.394,0,1,0,2.777-.254,45.522,45.522,0,0,1,.015-8.437l.914-9.611a1.394,1.394,0,0,0-1.32-1.525,10.1,10.1,0,0,0-1.234.018V38.788ZM17.788,16.183a3.423,3.423,0,0,1,3.443-3.395H92.39a3.423,3.423,0,0,1,3.443,3.395V52.341a9.812,9.812,0,0,0-6.4,8.677L88.883,72.31a11.917,11.917,0,0,1-1.476,5.17l-.63,1.137a19.844,19.844,0,0,0,1.059,21.043q.033.046.07.092l2.412,2.935a9.589,9.589,0,0,1,1.851,3.6l-5.3,1.31a1.394,1.394,0,0,0-1.058,1.285l-.6,12.279-63.979.378a3.423,3.423,0,0,1-3.443-3.4Z" transform="translate(0)" fill="#353e60"/>
    <path id="Path_2104" data-name="Path 2104" d="M50.8,58.452H79.827a1.394,1.394,0,0,0,0-2.788H50.8a1.394,1.394,0,1,0,0,2.788Z" transform="translate(-26.411 -35.053)" fill="#353e60"/>
    <path id="Path_2105" data-name="Path 2105" d="M41.452,428.672H70.479a1.394,1.394,0,0,0,0-2.788H41.452a1.394,1.394,0,0,0,0,2.788Z" transform="translate(-19.235 -319.247)" fill="#353e60"/>
    <path id="Path_2106" data-name="Path 2106" d="M45.17,104.73h60.471a1.394,1.394,0,1,0,0-2.788H45.17a1.394,1.394,0,1,0,0,2.788Z" transform="translate(-22.089 -70.578)" fill="#353e60"/>
    <path id="Path_2107" data-name="Path 2107" d="M45.17,151.007h60.471a1.394,1.394,0,1,0,0-2.788H45.17a1.394,1.394,0,1,0,0,2.788Z" transform="translate(-22.089 -106.102)" fill="#353e60"/>
    <path id="Path_2108" data-name="Path 2108" d="M45.17,197.288h60.471a1.394,1.394,0,1,0,0-2.788H45.17a1.394,1.394,0,1,0,0,2.788Z" transform="translate(-22.089 -141.629)" fill="#353e60"/>
    <path id="Path_2109" data-name="Path 2109" d="M45.17,243.563h60.471a1.394,1.394,0,1,0,0-2.788H45.17a1.394,1.394,0,1,0,0,2.788Z" transform="translate(-22.089 -177.151)" fill="#353e60"/>
    <path id="Path_2110" data-name="Path 2110" d="M45.17,289.84h60.471a1.394,1.394,0,1,0,0-2.788H45.17a1.394,1.394,0,1,0,0,2.788Z" transform="translate(-22.089 -212.675)" fill="#353e60"/>
    <path id="Path_2111" data-name="Path 2111" d="M45.17,336.118H99.152a1.394,1.394,0,1,0,0-2.788H45.17a1.394,1.394,0,0,0,0,2.788Z" transform="translate(-22.089 -248.199)" fill="#353e60"/>
    <path id="Path_2112" data-name="Path 2112" d="M442.2,428.27a4.063,4.063,0,0,0,1.086,2.977,4.165,4.165,0,0,0,2.876,1.338q.1.005.207.005a4.145,4.145,0,0,0,4.155-3.914,4.064,4.064,0,0,0-1.086-2.976,4.178,4.178,0,0,0-7.238,2.571Zm5.539.269a1.354,1.354,0,0,1-1.442,1.26,1.392,1.392,0,0,1-.963-.445,1.3,1.3,0,0,1-.349-.948,1.353,1.353,0,0,1,1.371-1.262c.023,0,.047,0,.07,0a1.394,1.394,0,0,1,.963.445,1.3,1.3,0,0,1,.35.949Z" transform="translate(-327.932 -318.075)" fill="#353e60"/>
    <path id="Path_2113" data-name="Path 2113" d="M44.8,368.207a10.134,10.134,0,0,0,1.741.569,5.728,5.728,0,0,0,5.584,3.892,7.009,7.009,0,0,0,3.684-1.025,7.49,7.49,0,0,0,2.019-2c.092-.122.2-.269.3-.387a6.308,6.308,0,0,0,1.241.861,8.266,8.266,0,0,0,3.73.953,8.512,8.512,0,0,0,4.454-1.172,1.394,1.394,0,1,0-1.4-2.409,5.7,5.7,0,0,1-2.989.793,5.464,5.464,0,0,1-2.472-.62,3.747,3.747,0,0,1-.819-.588,2.457,2.457,0,0,0-1.66-.756,3.177,3.177,0,0,0-2.609,1.653,4.93,4.93,0,0,1-1.276,1.312,4.15,4.15,0,0,1-3.62.313,2.7,2.7,0,0,1-.876-.689,6.527,6.527,0,0,0,3-1.276,7.035,7.035,0,0,0,1.986-2.5,3.537,3.537,0,0,0-.021-3.475,3.746,3.746,0,0,0-2.617-1.539,5.816,5.816,0,0,0-4.381,1,5.608,5.608,0,0,0-1.867,4.539l-.026-.011a1.394,1.394,0,0,0-1.1,2.56Zm4.722-4.9a2.851,2.851,0,0,1,1.677-.482,3.189,3.189,0,0,1,.518.041,1.213,1.213,0,0,1,.73.3c.148.228-.3,1.459-1.343,2.273a4.007,4.007,0,0,1-2.357.788,3.413,3.413,0,0,1,.774-2.919Z" transform="translate(-22.269 -268.7)" fill="#353e60"/>
  </g>
</svg>
