<svg xmlns="http://www.w3.org/2000/svg" width="113.65" height="113.634" viewBox="0 0 113.65 113.634">
  <g id="jigsaw" transform="translate(-5.027 -5.097)">
    <path id="Path_2114" data-name="Path 2114" d="M151.2,134.441a6.886,6.886,0,0,0-5.767,3.547V123.776a1.358,1.358,0,0,0-1.358-1.358H130.4a6.826,6.826,0,0,0,3.222-5.567c0-3.7-3.606-6.7-8.037-6.7s-8.037,3.006-8.037,6.7a6.825,6.825,0,0,0,3.221,5.567h-14.09a1.358,1.358,0,0,0-1.358,1.358v16.031a1.358,1.358,0,0,0,1.358,1.358h2.1a1.358,1.358,0,0,0,1.283-.911,4.4,4.4,0,0,1,3.836-3.1c2.2,0,3.985,2.387,3.985,5.321s-1.789,5.321-3.985,5.321a4.4,4.4,0,0,1-3.836-3.1,1.358,1.358,0,0,0-1.283-.911H106.77a1.358,1.358,0,0,0-1.358,1.358v14.726H92.557a6.887,6.887,0,0,0,3.547-5.767c0-3.7-3.606-6.7-8.037-6.7s-8.037,3.007-8.037,6.7a6.887,6.887,0,0,0,3.547,5.767H69.364a1.358,1.358,0,0,0-1.358,1.358v13.683a6.826,6.826,0,0,0-5.567-3.22c-3.7,0-6.7,3.606-6.7,8.037s3.006,8.037,6.7,8.037a6.825,6.825,0,0,0,5.567-3.221V198.64A1.358,1.358,0,0,0,69.364,200h15.6a1.358,1.358,0,0,0,.577-2.588,4.271,4.271,0,0,1-2.606-3.635c0-2.2,2.387-3.985,5.321-3.985s5.321,1.789,5.321,3.985a4.27,4.27,0,0,1-2.606,3.635A1.358,1.358,0,0,0,91.55,200h30.724a1.358,1.358,0,0,0,.577-2.588,4.271,4.271,0,0,1-2.606-3.635c0-2.2,2.387-3.985,5.321-3.985s5.321,1.789,5.321,3.985a4.271,4.271,0,0,1-2.606,3.635,1.358,1.358,0,0,0,.577,2.588h15.218a1.358,1.358,0,0,0,1.358-1.358V182.407a1.358,1.358,0,0,0-1.358-1.358h-.155a1.358,1.358,0,0,0-1.283.913,4.4,4.4,0,0,1-3.836,3.095c-2.2,0-3.985-2.387-3.985-5.321s1.789-5.321,3.985-5.321a4.4,4.4,0,0,1,3.836,3.1,1.358,1.358,0,0,0,1.283.912h.155a1.358,1.358,0,0,0,1.358-1.358V161.181l0-14.212a6.886,6.886,0,0,0,5.767,3.547c3.7,0,6.7-3.606,6.7-8.037S154.9,134.441,151.2,134.441Zm-45.794,62.841H95.188a6.282,6.282,0,0,0,1.109-3.507c0-3.7-3.606-6.7-8.037-6.7s-8.037,3.006-8.037,6.7a6.283,6.283,0,0,0,1.109,3.507H70.722V182.407a1.358,1.358,0,0,0-1.358-1.358H67.558a1.358,1.358,0,0,0-1.283.913,4.967,4.967,0,0,1-1.6,2.264,3.69,3.69,0,0,1-2.236.83c-2.2,0-3.985-2.387-3.985-5.321s1.789-5.321,3.985-5.321a4.4,4.4,0,0,1,3.836,3.1,1.358,1.358,0,0,0,1.283.912h1.806a1.358,1.358,0,0,0,1.358-1.358v-14.47H85.394a1.358,1.358,0,0,0,1.358-1.358v-2.007a1.358,1.358,0,0,0-.911-1.283,4.987,4.987,0,0,1-2.266-1.6,3.686,3.686,0,0,1-.83-2.235c0-2.2,2.387-3.985,5.321-3.985s5.321,1.789,5.321,3.985a3.686,3.686,0,0,1-.83,2.235,4.987,4.987,0,0,1-2.266,1.6,1.358,1.358,0,0,0-.911,1.283v2.007a1.358,1.358,0,0,0,1.358,1.358h14.672v10.52A6.383,6.383,0,0,0,101.5,171.7c-3.7,0-6.7,3.606-6.7,8.037s3.006,8.037,6.7,8.037a6.385,6.385,0,0,0,3.915-1.417Zm37.307-24.168A6.383,6.383,0,0,0,138.8,171.7c-3.7,0-6.7,3.606-6.7,8.037s3.006,8.037,6.7,8.037a6.383,6.383,0,0,0,3.915-1.417v10.926H132.5a6.282,6.282,0,0,0,1.109-3.507c0-3.7-3.606-6.7-8.037-6.7s-8.037,3.006-8.037,6.7a6.282,6.282,0,0,0,1.109,3.507H108.127V182.407a1.358,1.358,0,0,0-1.358-1.358h-.155a1.358,1.358,0,0,0-1.283.913,4.967,4.967,0,0,1-1.6,2.264,3.69,3.69,0,0,1-2.236.83c-2.2,0-3.985-2.387-3.985-5.321s1.789-5.321,3.985-5.321a4.4,4.4,0,0,1,3.836,3.1,1.358,1.358,0,0,0,1.283.912h.155a1.358,1.358,0,0,0,1.358-1.358v-14.47H122.7a1.358,1.358,0,0,0,1.358-1.358v-2.007a1.358,1.358,0,0,0-.911-1.283,4.4,4.4,0,0,1-3.1-3.836c0-2.2,2.387-3.985,5.321-3.985s5.321,1.789,5.321,3.985a4.4,4.4,0,0,1-3.1,3.836,1.358,1.358,0,0,0-.911,1.283v2.007a1.358,1.358,0,0,0,1.358,1.358h14.672ZM151.2,147.8a4.4,4.4,0,0,1-3.836-3.1,1.358,1.358,0,0,0-1.283-.911h-2.007a1.358,1.358,0,0,0-1.358,1.358v14.726H129.865a6.887,6.887,0,0,0,3.547-5.767c0-3.7-3.606-6.7-8.037-6.7s-8.037,3.007-8.037,6.7a6.887,6.887,0,0,0,3.547,5.767H108.129V146.969a6.886,6.886,0,0,0,5.767,3.547c3.7,0,6.7-3.606,6.7-8.037s-3.007-8.037-6.7-8.037a6.914,6.914,0,0,0-5.864,3.717V125.134h14.875a1.358,1.358,0,0,0,1.358-1.358V121.97a1.358,1.358,0,0,0-.913-1.283,4.4,4.4,0,0,1-3.1-3.836c0-2.2,2.387-3.985,5.321-3.985s5.321,1.789,5.321,3.985a4.4,4.4,0,0,1-3.1,3.836,1.358,1.358,0,0,0-.912,1.283v1.806a1.358,1.358,0,0,0,1.358,1.358h14.469v14.672a1.358,1.358,0,0,0,1.358,1.358h2.007a1.358,1.358,0,0,0,1.283-.911,4.4,4.4,0,0,1,3.836-3.1c2.2,0,3.985,2.387,3.985,5.321S153.4,147.8,151.2,147.8Z" transform="translate(-39.229 -81.268)" fill="#353e60"/>
    <path id="Path_2115" data-name="Path 2115" d="M8.538,31.416a6.824,6.824,0,0,0,6.411-.513L8.889,43.622a1.358,1.358,0,0,0,.642,1.811l14.086,6.712a1.358,1.358,0,0,0,1.634-2.089,4.27,4.27,0,0,1-.789-4.4,3.51,3.51,0,0,1,2.475-1.832,6.2,6.2,0,0,1,4.043.523c2.649,1.262,4.035,3.9,3.09,5.887a4.263,4.263,0,0,1-3.917,2.161,1.358,1.358,0,0,0-.593,2.585L43.3,61.523a1.358,1.358,0,0,0,1.811-.642l6.983-14.656a1.358,1.358,0,0,0-.642-1.811l-.14-.067a1.358,1.358,0,0,0-1.551.272,4.4,4.4,0,0,1-4.794,1.144c-1.984-.945-2.571-3.869-1.309-6.518s3.9-4.035,5.887-3.09A4.4,4.4,0,0,1,51.675,40.6a1.358,1.358,0,0,0,.766,1.376l.14.067a1.358,1.358,0,0,0,1.811-.642L61.2,27.111a1.358,1.358,0,0,0-.642-1.811l-12.83-6.113a6.888,6.888,0,0,0,5.683-3.681,6.169,6.169,0,0,0-.144-5.43A9.267,9.267,0,0,0,43.2,5.283,6.169,6.169,0,0,0,38.9,8.592a6.886,6.886,0,0,0,.721,6.732L26.789,9.211a1.358,1.358,0,0,0-1.811.642L19.091,22.206a6.821,6.821,0,0,0-3.638-5.3c-3.336-1.59-7.6.373-9.508,4.374a8.919,8.919,0,0,0-.715,5.831A6.169,6.169,0,0,0,8.538,31.416ZM8.4,22.445c1.262-2.649,3.9-4.034,5.887-3.09A4.4,4.4,0,0,1,16.416,23.8a1.358,1.358,0,0,0,.766,1.375l1.63.777a1.358,1.358,0,0,0,1.811-.642l6.224-13.064,13.245,6.311a1.358,1.358,0,0,0,1.811-.642l.863-1.811a1.358,1.358,0,0,0-.272-1.55,4.4,4.4,0,0,1-1.145-4.8,3.511,3.511,0,0,1,2.475-1.832,6.559,6.559,0,0,1,7,3.335,3.51,3.51,0,0,1,.136,3.076,4.4,4.4,0,0,1-4.446,2.131,1.358,1.358,0,0,0-1.374.766l-.863,1.811a1.358,1.358,0,0,0,.642,1.811L58.16,27.169l-4.525,9.5A6.385,6.385,0,0,0,50.71,33.7c-3.337-1.589-7.6.373-9.508,4.374s-.743,8.55,2.593,10.139a6.383,6.383,0,0,0,4.143.405l-4.7,9.863-9.229-4.4A6.282,6.282,0,0,0,36.522,51.4c1.59-3.336-.372-7.6-4.374-9.507a8.92,8.92,0,0,0-5.831-.716,6.169,6.169,0,0,0-4.308,3.309,6.284,6.284,0,0,0-.506,3.643l-9.577-4.562,6.4-13.429a1.358,1.358,0,0,0-.642-1.811l-1.63-.777a1.358,1.358,0,0,0-1.551.272,4.4,4.4,0,0,1-4.794,1.144,3.514,3.514,0,0,1-1.832-2.475A6.2,6.2,0,0,1,8.4,22.445Z" transform="translate(0 0)" fill="#353e60"/>
  </g>
</svg>
